<svg xmlns="http://www.w3.org/2000/svg" xmlns:xlink="http://www.w3.org/1999/xlink" xmlns:lucid="lucid" width="433.21" height="126"><g transform="translate(-56.730102296775385 -361.0000000000001)" lucid:page-tab-id="pFaR62B5PKoI"><path d="M56.73 361h262.8v42H56.72z" fill-opacity="0"/><path d="M319.52 361h170.42v42H319.52zM56.73 403h262.8v42H56.72z" fill-opacity="0"/><path d="M319.52 403h170.42v42H319.52zM56.73 445h262.8v42H56.72z" fill-opacity="0"/><path d="M319.52 445h170.42v42H319.52z" fill-opacity="0"/><path d="M56.73 361v42M489.94 361v42M56.73 403v42M489.94 403v42M56.73 445v42M489.94 445v42M56.73 361h262.8M319.52 361h170.42M56.73 487h262.8M319.52 487h170.42" stroke="#000" stroke-opacity="0" stroke-width="2" fill="none"/><use xlink:href="#a" transform="matrix(1,0,0,1,61.730102296775385,366.0000000000001) translate(33.2777777777778 21.333333333333332)"/><use xlink:href="#b" transform="matrix(1,0,0,1,61.730102296775385,366.0000000000001) translate(169.42592592592592 21.333333333333332)"/><use xlink:href="#c" transform="matrix(1,0,0,1,61.730102296775385,408.0000000000001) translate(71.7962962962963 21.333333333333332)"/><use xlink:href="#b" transform="matrix(1,0,0,1,61.730102296775385,408.0000000000001) translate(130.9074074074074 21.333333333333332)"/><use xlink:href="#d" transform="matrix(1,0,0,1,61.730102296775385,450.0000000000001) translate(70.98148148148148 21.333333333333332)"/><use xlink:href="#b" transform="matrix(1,0,0,1,61.730102296775385,450.0000000000001) translate(131.72222222222223 21.333333333333332)"/><path d="M331.18 422.25a1.25 1.25 0 0 1 1.25-1.25h84.94a1.25 1.25 0 0 1 1.25 1.25 1.25 1.25 0 0 1-1.25 1.25h-84.94a1.25 1.25 0 0 1-1.25-1.25z" stroke="#9f3d00" stroke-width="2.5" fill="none"/><path d="M331.18 462.94a1.25 1.25 0 0 1 1.25-1.25h85a1.25 1.25 0 0 1 1.25 1.24 1.25 1.25 0 0 1-1.25 1.25h-85a1.25 1.25 0 0 1-1.25-1.26z" stroke="#1071e5" stroke-width="2.5" fill="none"/><path d="M331.18 378.42a1.25 1.25 0 0 1 1.25-1.25h83.92a1.25 1.25 0 0 1 1.25 1.25 1.25 1.25 0 0 1-1.25 1.25h-83.92a1.25 1.25 0 0 1-1.25-1.25z" stroke="#008a0e" stroke-width="2.5" fill="none"/><defs><path fill="#fff" d="M30-248c87 1 191-15 191 75 0 78-77 80-158 76V0H30v-248zm33 125c57 0 124 11 124-50 0-59-68-47-124-48v98" id="e"/><path fill="#fff" d="M114-163C36-179 61-72 57 0H25l-1-190h30c1 12-1 29 2 39 6-27 23-49 58-41v29" id="f"/><path fill="#fff" d="M100-194c63 0 86 42 84 106H49c0 40 14 67 53 68 26 1 43-12 49-29l28 8c-11 28-37 45-77 45C44 4 14-33 15-96c1-61 26-98 85-98zm52 81c6-60-76-77-97-28-3 7-6 17-6 28h103" id="g"/><path fill="#fff" d="M135-143c-3-34-86-38-87 0 15 53 115 12 119 90S17 21 10-45l28-5c4 36 97 45 98 0-10-56-113-15-118-90-4-57 82-63 122-42 12 7 21 19 24 35" id="h"/><path fill="#fff" d="M84 4C-5 8 30-112 23-190h32v120c0 31 7 50 39 49 72-2 45-101 50-169h31l1 190h-30c-1-10 1-25-2-33-11 22-28 36-60 37" id="i"/><path fill="#fff" d="M141-36C126-15 110 5 73 4 37 3 15-17 15-53c-1-64 63-63 125-63 3-35-9-54-41-54-24 1-41 7-42 31l-33-3c5-37 33-52 76-52 45 0 72 20 72 64v82c-1 20 7 32 28 27v20c-31 9-61-2-59-35zM48-53c0 20 12 33 32 33 41-3 63-29 60-74-43 2-92-5-92 41" id="j"/><path fill="#fff" d="M117-194c89-4 53 116 60 194h-32v-121c0-31-8-49-39-48C34-167 62-67 57 0H25l-1-190h30c1 10-1 24 2 32 11-22 29-35 61-36" id="k"/><path fill="#fff" d="M59-47c-2 24 18 29 38 22v24C64 9 27 4 27-40v-127H5v-23h24l9-43h21v43h35v23H59v120" id="l"/><g id="a"><use transform="matrix(0.07407407407407407,0,0,0.07407407407407407,0,0)" xlink:href="#e"/><use transform="matrix(0.07407407407407407,0,0,0.07407407407407407,17.77777777777778,0)" xlink:href="#f"/><use transform="matrix(0.07407407407407407,0,0,0.07407407407407407,26.592592592592595,0)" xlink:href="#g"/><use transform="matrix(0.07407407407407407,0,0,0.07407407407407407,41.407407407407405,0)" xlink:href="#h"/><use transform="matrix(0.07407407407407407,0,0,0.07407407407407407,54.740740740740726,0)" xlink:href="#h"/><use transform="matrix(0.07407407407407407,0,0,0.07407407407407407,68.07407407407406,0)" xlink:href="#i"/><use transform="matrix(0.07407407407407407,0,0,0.07407407407407407,82.88888888888887,0)" xlink:href="#f"/><use transform="matrix(0.07407407407407407,0,0,0.07407407407407407,91.70370370370368,0)" xlink:href="#j"/><use transform="matrix(0.07407407407407407,0,0,0.07407407407407407,106.51851851851849,0)" xlink:href="#k"/><use transform="matrix(0.07407407407407407,0,0,0.07407407407407407,121.33333333333329,0)" xlink:href="#l"/></g><path fill="#fff" d="M30 0v-248h33v221h125V0H30" id="m"/><path fill="#fff" d="M24-231v-30h32v30H24zM24 0v-190h32V0H24" id="n"/><g id="b"><use transform="matrix(0.07407407407407407,0,0,0.07407407407407407,0,0)" xlink:href="#m"/><use transform="matrix(0.07407407407407407,0,0,0.07407407407407407,14.814814814814813,0)" xlink:href="#n"/><use transform="matrix(0.07407407407407407,0,0,0.07407407407407407,20.666666666666664,0)" xlink:href="#k"/><use transform="matrix(0.07407407407407407,0,0,0.07407407407407407,35.48148148148148,0)" xlink:href="#g"/></g><path fill="#fff" d="M63-220v92h138v28H63V0H30v-248h175v28H63" id="o"/><path fill="#fff" d="M24 0v-261h32V0H24" id="p"/><g id="c"><use transform="matrix(0.07407407407407407,0,0,0.07407407407407407,0,0)" xlink:href="#o"/><use transform="matrix(0.07407407407407407,0,0,0.07407407407407407,16.22222222222222,0)" xlink:href="#i"/><use transform="matrix(0.07407407407407407,0,0,0.07407407407407407,31.037037037037035,0)" xlink:href="#g"/><use transform="matrix(0.07407407407407407,0,0,0.07407407407407407,45.85185185185185,0)" xlink:href="#p"/></g><path fill="#fff" d="M140-251c81 0 123 46 123 126C263-46 219 4 140 4 59 4 17-45 17-125s42-126 123-126zm0 227c63 0 89-41 89-101s-29-99-89-99c-61 0-89 39-89 99S79-25 140-24" id="q"/><path fill="#fff" d="M195 0l-74-108L45 0H8l94-129-87-119h37l69 98 67-98h37l-84 118L233 0h-38" id="r"/><g id="d"><use transform="matrix(0.07407407407407407,0,0,0.07407407407407407,0,0)" xlink:href="#m"/><use transform="matrix(0.07407407407407407,0,0,0.07407407407407407,14.814814814814813,0)" xlink:href="#q"/><use transform="matrix(0.07407407407407407,0,0,0.07407407407407407,35.55555555555556,0)" xlink:href="#r"/></g></defs></g></svg>