<svg xmlns="http://www.w3.org/2000/svg" xmlns:xlink="http://www.w3.org/1999/xlink" xmlns:lucid="lucid" width="2820" height="1351"><g transform="translate(1932 -18)" lucid:page-tab-id="WYjWd5sR7Sbd"><path d="M577.54 434.68v37.2M577.54 434.7v-1.02M577.54 471.87v1.02" stroke="#fff" stroke-width="2" fill="none"/><path d="M-13 245.5H-59.6a6 6 0 0 0-6 6v214.63a6 6 0 0 0 6 6H15.1" stroke="#cc4e00" stroke-width="5" fill="none"/><path d="M-10.5 247.97h-2.55v-4.95h2.56z" stroke="#cc4e00" stroke-width=".05" fill="#cc4e00"/><path d="M15.05 472.13h2.56M34.4 472.27h-158.62M34.34 472.27h2.56" stroke="#cc4e00" stroke-width="5" fill="none"/><path d="M-124.15 474.75h-2.58l.02-3.2-.08-1.75h2.63z" stroke="#cc4e00" stroke-width=".05" fill="#cc4e00"/><path d="M420.4 472.9h462.2a6 6 0 0 1 6 6v118.38" stroke="#cc4e00" stroke-width="5" fill="none"/><path d="M420.46 475.37h-2.56v-4.95h2.56z" stroke="#cc4e00" stroke-width=".05" fill="#cc4e00"/><path d="M888.6 614.05l-4.64-14.27h9.26z" stroke="#cc4e00" stroke-width="5" fill="#cc4e00"/><g stroke="#cc4e00" stroke-width="3" fill-opacity="0"><path d="M-317.34 531.72h167.2c29.26-3.36 29.26-112.2 0-115.56h-167.2c-22.66 3.36-22.66 112.2 0 115.56zM-317.34 531.72V414M-150.14 531.72V414"/></g><path d="M-288 433a6 6 0 0 1 6-6h98a6 6 0 0 1 6 6v78a6 6 0 0 1-6 6h-98a6 6 0 0 1-6-6z" stroke="#000" stroke-opacity="0" stroke-width="3" fill="#fff" fill-opacity="0"/><use xlink:href="#a" transform="matrix(1,0,0,1,-283,432) translate(20.4320987654321 20.27777777777778)"/><use xlink:href="#b" transform="matrix(1,0,0,1,-283,432) translate(21.265432098765437 46.94444444444444)"/><use xlink:href="#c" transform="matrix(1,0,0,1,-283,432) translate(1.882716049382715 73.61111111111111)"/><use xlink:href="#d" transform="matrix(1,0,0,1,-283,432) translate(57.43827160493827 73.61111111111111)"/><g stroke="#1071e5" stroke-width="3" fill-opacity="0"><path d="M-337.34 969.47h167.2c29.26-3.36 29.26-112.2 0-115.56h-167.2c-22.66 3.37-22.66 112.2 0 115.57zM-337.34 969.47V851.75M-170.14 969.47V851.75"/></g><path d="M-309 872a6 6 0 0 1 6-6h98a6 6 0 0 1 6 6v78a6 6 0 0 1-6 6h-98a6 6 0 0 1-6-6z" stroke="#000" stroke-opacity="0" stroke-width="3" fill="#fff" fill-opacity="0"/><use xlink:href="#e" transform="matrix(1,0,0,1,-304,871) translate(27.77777777777778 20.27777777777778)"/><use xlink:href="#f" transform="matrix(1,0,0,1,-304,871) translate(21.265432098765437 46.94444444444444)"/><use xlink:href="#g" transform="matrix(1,0,0,1,-304,871) translate(8.055555555555557 73.61111111111111)"/><use xlink:href="#d" transform="matrix(1,0,0,1,-304,871) translate(51.26543209876544 73.61111111111111)"/><path d="M-144.2 909.47h94.65" stroke="#1071e5" stroke-width="5" fill="none"/><path d="M-144.15 911.94h-2.58l.02-2.64-.1-2.3h2.65z" stroke="#1071e5" stroke-width=".05" fill="#1071e5"/><path d="M-49.62 909.47h2.57M416.35 905.33h221.3a6 6 0 0 0 6-6V680.28a6 6 0 0 1 6-6h27.16" stroke="#1071e5" stroke-width="5" fill="none"/><path d="M416.42 907.8h-2.57v-4.94h2.56z" stroke="#1071e5" stroke-width=".05" fill="#1071e5"/><path d="M693.57 674.28l-14.26 4.63v-9.26z" stroke="#1071e5" stroke-width="5" fill="#1071e5"/><path d="M103 1251.08l-42 26.1 42 26.03v-52.12z" stroke="#000" stroke-opacity="0" stroke-width="3" fill="#1071e5"/><path d="M98 1242a6 6 0 0 1 6-6h84.1a6 6 0 0 1 6 6v78a6 6 0 0 1-6 6H104a6 6 0 0 1-6-6z" stroke="#000" stroke-opacity="0" stroke-width="3" fill="#fff" fill-opacity="0"/><use xlink:href="#h" transform="matrix(1,0,0,1,102.99999999999997,1241) translate(21.27777777777778 30.27777777777778)"/><use xlink:href="#i" transform="matrix(1,0,0,1,102.99999999999997,1241) translate(21.308641975308642 56.94444444444445)"/><path d="M-65.03 206.97" stroke="#fff" stroke-width="2" fill="none"/><path d="M24.4 909.53h-82.89M24.35 909.53h2.56M-58.43 909.53H-61" stroke="#1071e5" stroke-width="5" fill="none"/><path d="M-1585.3 495.03v-46.7l-37.23 23.35zM-1660 448.34v46.7l37.24-23.36z" stroke="#fff" stroke-width="2" fill="#13161d"/><path d="M-1640.17 472.1c0-9.67 7.85-17.52 17.53-17.52 9.7 0 17.54 7.85 17.54 17.53 0 9.7-7.85 17.54-17.54 17.54-9.68 0-17.53-7.85-17.53-17.53z" stroke="#fff" stroke-width="2" fill="#13161d"/><path d="M-1642.2 426.2h38M-1642.16 426.2h-1.03M-1604.2 426.2h1M-1623.2 427.2v12.7h.03V452.64M-1623.2 427.2v-1" stroke="#fff" stroke-width="2" fill="none"/><path d="M-1622.18 453.63l-.46-.06-1.5.2v-1.16h1.96z" stroke="#fff" stroke-width=".05" fill="#fff"/><path d="M-1704.24 472.8h40.74" stroke="#008a0e" stroke-width="5" fill="none"/><path d="M-1704.18 475.27h-2.58l.04-4.95h2.54zM-1661 475.27h-2.57v-4.95h2.57z" stroke="#008a0e" stroke-width=".05" fill="#008a0e"/><path d="M-1180.63 471.72h228.13" stroke="#008a0e" stroke-width="5" fill="none"/><path d="M-1180.56 474.2h-2.57v-4.96h2.57z" stroke="#008a0e" stroke-width=".05" fill="#008a0e"/><path d="M-952.57 471.72h2.57" stroke="#008a0e" stroke-width="5" fill="none"/><g stroke="#008a0e" stroke-width="3" fill-opacity="0"><path d="M-1897.34 528.83h167.2c29.26-3.36 29.26-112.2 0-115.56h-167.2c-22.66 3.36-22.66 112.2 0 115.56zM-1897.34 528.83V411.1M-1730.14 528.83V411.1"/></g><path d="M-1865 431.24a6 6 0 0 1 6-6h98a6 6 0 0 1 6 6v78a6 6 0 0 1-6 6h-98a6 6 0 0 1-6-6z" stroke="#000" stroke-opacity="0" stroke-width="3" fill="#fff" fill-opacity="0"/><use xlink:href="#j" transform="matrix(1,0,0,1,-1860,430.2435284561466) translate(-8.518518518518512 17.77777777777778)"/><use xlink:href="#k" transform="matrix(1,0,0,1,-1860,430.2435284561466) translate(21.265432098765437 44.44444444444444)"/><use xlink:href="#l" transform="matrix(1,0,0,1,-1860,430.2435284561466) translate(1.882716049382715 71.11111111111111)"/><use xlink:href="#d" transform="matrix(1,0,0,1,-1860,430.2435284561466) translate(57.43827160493827 71.11111111111111)"/><path d="M-1494.4 442.18a11 11 0 0 1 11-11h22.8a11 11 0 0 1 11 11v17.44a11 11 0 0 1-11 11h-22.8a11 11 0 0 1-11-11z" stroke="#fff" stroke-width="2" fill="#13161d"/><path d="M-1500 454.62v32.98l27.9-16.5zM-1444 487.6v-32.98l-27.9 16.5z" stroke="#fff" stroke-width="2" fill="#13161d"/><g fill-opacity="0"><path d="M-1455.2 414v17.18h-35V414z"/><path d="M-1455.2 414h-35.03M-1472.38 414v17.12" stroke="#fff" stroke-width="2"/></g><path d="M-1385.24 338.67V469.82M-1385.24 338.7v-1.03M-1385.24 469.8v1.02" stroke="#fff" stroke-width="2" fill="none"/><path d="M-1234.53 443.18a11 11 0 0 1 11-11h22.8a11 11 0 0 1 11 11v17.44a11 11 0 0 1-11 11h-22.8a11 11 0 0 1-11-11z" stroke="#fff" stroke-width="2" fill="#13161d"/><path d="M-1240.13 455.62v32.98l27.92-16.5zM-1184.13 488.6v-32.98l-27.9 16.5z" stroke="#fff" stroke-width="2" fill="#13161d"/><g fill-opacity="0"><path d="M-1195.32 415v17.18h-35V415z"/><path d="M-1195.32 415h-35.04M-1212.5 415v17.12" stroke="#fff" stroke-width="2"/></g><path d="M-1069.2 338.67v132M-1069.2 338.7v-1.03M-1069.2 470.66v1.02M-510.2 498v-26.95M-510.2 497.97V499M-510.2 471.08v-1.03" stroke="#fff" stroke-width="2" fill="none"/><path d="M-834.88 474.22v102.46a6 6 0 0 1-6 6h-21.64M-834.88 474.28v-2.56" stroke="#008a0e" stroke-width="5" fill="none"/><path d="M-862.46 585.15h-2.56v-4.95h2.56z" stroke="#008a0e" stroke-width=".05" fill="#008a0e"/><path d="M-1131.2 474.18v102.06a6 6 0 0 0 6 6h58.15M-1131.2 474.25v-2.57M-1067.12 582.24h2.57M-724.68 912.46h366.35" stroke="#008a0e" stroke-width="5" fill="none"/><path d="M-724.6 914.94h-2.58V910h2.57zM-355.83 912.6l.06 2.34h-2.63V910h2.6z" stroke="#008a0e" stroke-width=".05" fill="#008a0e"/><path d="M-1387.6 778.67v132.97a1.47 1.47 0 0 1-1.47 1.48M-1387.6 778.7v-1.03M-1389.05 913.12h-1.02" stroke="#fff" stroke-width="2" fill="none"/><path d="M-1699 913.5h21.94v.03h21.98M-1698.95 913.5h-2.56" stroke="#008a0e" stroke-width="5" fill="none"/><path d="M-1652.58 916.02h-2.57v-4.95h2.57z" stroke="#008a0e" stroke-width=".05" fill="#008a0e"/><path d="M-1189.32 912.46h220.82" stroke="#008a0e" stroke-width="5" fill="none"/><path d="M-1189.26 914.94h-2.56V910h2.56z" stroke="#008a0e" stroke-width=".05" fill="#008a0e"/><path d="M-968.57 912.46h2.57" stroke="#008a0e" stroke-width="5" fill="none"/><g stroke="#008a0e" stroke-width="3" fill-opacity="0"><path d="M-1891.34 969.57h167.2c29.26-3.36 29.26-112.2 0-115.56h-167.2c-22.66 3.37-22.66 112.2 0 115.57zM-1891.34 969.57V851.85M-1724.14 969.57V851.85"/></g><path d="M-1865 872a6 6 0 0 1 6-6h98a6 6 0 0 1 6 6v78a6 6 0 0 1-6 6h-98a6 6 0 0 1-6-6z" stroke="#000" stroke-opacity="0" stroke-width="3" fill="#fff" fill-opacity="0"/><use xlink:href="#j" transform="matrix(1,0,0,1,-1860,870.9897356063129) translate(-8.518518518518512 17.77777777777778)"/><use xlink:href="#k" transform="matrix(1,0,0,1,-1860,870.9897356063129) translate(21.265432098765437 44.44444444444444)"/><use xlink:href="#l" transform="matrix(1,0,0,1,-1860,870.9897356063129) translate(1.882716049382715 71.11111111111111)"/><use xlink:href="#d" transform="matrix(1,0,0,1,-1860,870.9897356063129) translate(57.43827160493827 71.11111111111111)"/><path d="M-1577.5 913.12h208" stroke="#008a0e" stroke-width="5" stroke-linecap="round" fill="none"/><path d="M-1243.22 882.18a11 11 0 0 1 11-11h22.8a11 11 0 0 1 11 11v17.44a11 11 0 0 1-11 11h-22.8a11 11 0 0 1-11-11z" stroke="#fff" stroke-width="2" fill="#13161d"/><path d="M-1248.82 894.62v32.98l27.9-16.5zM-1192.82 927.6v-32.98l-27.92 16.5z" stroke="#fff" stroke-width="2" fill="#13161d"/><g fill-opacity="0"><path d="M-1204.02 854v17.18h-35V854z"/><path d="M-1204.02 854h-35.04M-1221.2 854v17.12" stroke="#fff" stroke-width="2"/></g><path d="M-508.82 940.14v-26.68M-508.82 940.1v1.04M-508.82 913.5v-1.04" stroke="#fff" stroke-width="2" fill="none"/><path d="M-838.9 914.52v103.27a6 6 0 0 1-6 6h-156.84M-838.9 914.58v-2.56M-1001.67 1023.8h-2.57M-1141.88 914.93v102.86a6 6 0 0 0 6 6h67.14M-1141.88 915v-2.57M-1068.8 1023.8h2.56" stroke="#008a0e" stroke-width="5" fill="none"/><path d="M560 218a6 6 0 0 1 6-6h111a6 6 0 0 1 6 6v67.06a6 6 0 0 1-6 6H566a6 6 0 0 1-6-6z" stroke="#000" stroke-opacity="0" stroke-width="3" fill="#fff" fill-opacity="0"/><use xlink:href="#m" transform="matrix(1,0,0,1,564.9999499999998,217) translate(28.567901234567902 26.52777777777778)"/><use xlink:href="#n" transform="matrix(1,0,0,1,564.9999499999998,217) translate(17.055555555555557 53.19444444444445)"/><path d="M570.4 942.76v-36.43M570.4 942.74v1.02M570.4 906.36v-1.03" stroke="#fff" stroke-width="2" fill="none"/><path d="M726.6 624.2v100h64v-100zM790.6 674.2l96-50v100l-96-50M703.66 624.2h22.93v100.17h-22.94z" stroke="#fcce14" stroke-width="4" fill-opacity="0"/><path d="M-1667.25 511.1a6 6 0 0 1 6-6h83.75a6 6 0 0 1 6 6v24.68a6 6 0 0 1-6 6h-83.75a6 6 0 0 1-6-6z" stroke="#000" stroke-opacity="0" stroke-width="2" fill="#fff" fill-opacity="0"/><use xlink:href="#o" transform="matrix(1,0,0,1,-1662.2482068097263,510.11439473902044) translate(-0.7653445679012236 17.944435555555554)"/><path d="M-1519.87 503.9a6 6 0 0 1 6-6h83.74a6 6 0 0 1 6 6v24.67a6 6 0 0 1-6 6h-83.74a6 6 0 0 1-6-6z" stroke="#000" stroke-opacity="0" stroke-width="2" fill="#fff" fill-opacity="0"/><use xlink:href="#p" transform="matrix(1,0,0,1,-1514.8737522124777,502.904848815156) translate(-3.2344754320987548 17.944435555555554)"/><path d="M-1260 500.52a6 6 0 0 1 6-6h83.75a6 6 0 0 1 6 6v24.66a6 6 0 0 1-6 6H-1254a6 6 0 0 1-6-6z" stroke="#000" stroke-opacity="0" stroke-width="2" fill="#fff" fill-opacity="0"/><use xlink:href="#q" transform="matrix(1,0,0,1,-1255,499.5160559063529) translate(-3.2344754320987548 17.944435555555554)"/><path d="M-628 621v76.9a6 6 0 0 0 6 6h23.86a6 6 0 0 1 6 6v76.9M-628 621.03V620M-592.14 786.78v1.03M-728.96 482.96h-.6M-729.6 483.62v-1.03M-728.94 482.3v1.03" stroke="#000" stroke-opacity="0" stroke-width="2" fill="none"/><path d="M-888.44 471.27h105.94M-888.37 471.27h-2.57M-782.57 471.27h2.57M-714.48 470.05h376.22" stroke="#008a0e" stroke-width="5" fill="none"/><path d="M-714.4 472.52H-717v-4.94h2.57zM-335.8 472.52h-2.52v-4.94h2.6z" stroke="#008a0e" stroke-width=".05" fill="#008a0e"/><path d="M-778.3 438.7v49.4h59.82v-49.4z" fill-opacity="0"/><path d="M-778.3 438.7v49.4M-718.48 438.7v49.4M-777.75 443.18l.68-.96 58.13 41.25-.68.96z" stroke="#fff" stroke-width="3" fill="#fff"/><path d="M-736.68 498.44h-31.4v-1.64h31.4z" stroke="#fff" stroke-width="2" fill="#fff"/><path d="M-737.32 492.23v10.15l8.64-5.07z" stroke="#fff" stroke-width="2" fill="#fff"/><path d="M-750.48 451.72l10.07 5.5-8.8 16.08-10.07-5.52z" fill="none"/><path d="M-745.4 454.5c-1-.45-1.03-.54-1.88-.68-.86-.13-2-.2-2.73.03-.74.23-1.63.64-2.07 1.2-.44.57-.83 1.1-.9 1.92-.1.8-.02 1.76.24 2.33.28.57.77 1.7 1.63 2.35.88.65 2.1 1.27 2.63 1.82.54.56 1.27 1.5 1.5 2.2.2.72.58 1.56.32 2.46-.25.9-.83 1.95-1.4 2.34-.6.38-1 .76-2.35.83-1.34.06-2.48-.08-3.13-.42l-.68-.32" stroke="#fff" stroke-width="3" fill-opacity="0"/><path d="M-799.84 506a6 6 0 0 1 6-6h91a6 6 0 0 1 6 6v51.33a6 6 0 0 1-6 6h-91a6 6 0 0 1-6-6z" stroke="#000" stroke-opacity="0" stroke-width="2" fill="#fff" fill-opacity="0"/><use xlink:href="#r" transform="matrix(1,0,0,1,-794.8442900612774,505) translate(2.117283950617278 31.27777777777778)"/><path d="M-926.02 565.74v33.87l29.9-16.92zM-866.02 599.6v-33.86l-29.9 16.94z" stroke="#fff" stroke-width="2" fill="#13161d"/><path d="M-895.93 551.28v12.9M-895.93 551.3v-1.02" stroke="#fff" stroke-width="2" fill="none"/><path d="M-895.93 579.44l-4.64-14.26h9.28z" stroke="#fff" stroke-width="2" fill="#fff"/><path d="M-913.87 551.28h38" stroke="#fff" stroke-width="2" stroke-linecap="round" fill="none"/><path d="M-946.37 598.4a6 6 0 0 1 6-6h91a6 6 0 0 1 6 6v51.35a6 6 0 0 1-6 6h-91a6 6 0 0 1-6-6z" stroke="#000" stroke-opacity="0" stroke-width="2" fill="#fff" fill-opacity="0"/><use xlink:href="#s" transform="matrix(1,0,0,1,-941.3674884954527,597.4144712323709) translate(9.524765308641989 31.27774222222222)"/><path d="M-1663.08 953.03a6 6 0 0 1 6-6h83.74a6 6 0 0 1 6 6v24.67a6 6 0 0 1-6 6h-83.74a6 6 0 0 1-6-6z" stroke="#000" stroke-opacity="0" stroke-width="2" fill="#fff" fill-opacity="0"/><use xlink:href="#t" transform="matrix(1,0,0,1,-1658.0835567086192,952.0337214257373) translate(-0.7653445679012236 17.944435555555554)"/><path d="M-1268 943.43a6 6 0 0 1 6-6h83.75a6 6 0 0 1 6 6v24.67a6 6 0 0 1-6 6H-1262a6 6 0 0 1-6-6z" stroke="#000" stroke-opacity="0" stroke-width="2" fill="#fff" fill-opacity="0"/><use xlink:href="#u" transform="matrix(1,0,0,1,-1263,942.43046126837) translate(-3.2344754320987548 17.944435555555554)"/><path d="M325.17 220v49.4H385V220z" fill-opacity="0"/><path d="M325.17 220v49.4M385 220v49.4M325.7 224.47l.7-.95 58.13 41.25-.68.96z" stroke="#fff" stroke-width="3" fill="#fff"/><path d="M374.48 279.74h-31.4v-1.65h31.4zM343.07 283.68v-10.15l-8.65 5.07z" stroke="#fff" stroke-width="2" fill="#fff"/><path d="M353 233l10.06 5.52-8.8 16.07-10.06-5.52z" fill="none"/><path d="M358.05 235.8c-1-.46-1-.55-1.87-.68-.85-.14-2-.2-2.72.03-.73.23-1.62.64-2.07 1.2-.44.56-.84 1.1-.92 1.9-.07.82 0 1.78.26 2.34.28.56.76 1.68 1.63 2.35.87.64 2.1 1.27 2.63 1.8.54.58 1.27 1.52 1.5 2.23.2.7.57 1.55.3 2.45-.24.9-.82 1.95-1.4 2.34-.57.37-.98.76-2.34.83-1.34.06-2.48-.1-3.13-.42l-.67-.33" stroke="#fff" stroke-width="3" fill-opacity="0"/><path d="M559 251.53H452.96a6 6 0 0 1-6-6V101M446.96 101.03V100" stroke="#000" stroke-opacity="0" stroke-width="2" fill="none"/><path d="M559 251.53h-33a6 6 0 0 1-6-6v-19.5a6 6 0 0 1 6-6h97.87M623.84 220.03h1.02" stroke="#000" stroke-opacity="0" stroke-width="2" fill="none"/><path d="M564.5 223.28l-31.74 25.16 31.74 25.12v-50.28z" stroke="#008a0e" stroke-width="3" fill="#008a0e"/><path d="M284.77 469.77V254.5a6 6 0 0 1 6-6h30.4M284.77 469.7v2.57" stroke="#008a0e" stroke-width="5" fill="none"/><path d="M323.67 251h-2.56v-4.96h2.57z" stroke="#008a0e" stroke-width=".05" fill="#008a0e"/><path d="M538.63 247.13h-18.5a.05.05 0 0 0-.05.04.05.05 0 0 1-.05.05h-18.5M538.56 247.13h2.57M501.6 247.22h-2.57M434.53 244.42H389M434.47 244.42h2.56" stroke="#008a0e" stroke-width="5" fill="none"/><path d="M389.05 246.9h-2.56v-4.96h2.55z" stroke="#008a0e" stroke-width=".05" fill="#008a0e"/><path d="M438.03 244.42h.97M438.06 244.42h-1.03M438.97 244.42H440M437.18 244.42h-.15M438.06 244.42h-1.03M437.18 244.42" stroke="#000" stroke-opacity="0" stroke-width="2" fill="none"/><path d="M306.47 282.36a6 6 0 0 1 6-6h91a6 6 0 0 1 6 6v51.34a6 6 0 0 1-6 6h-91a6 6 0 0 1-6-6z" stroke="#000" stroke-opacity="0" stroke-width="2" fill="#fff" fill-opacity="0"/><use xlink:href="#v" transform="matrix(1,0,0,1,311.47139393840075,281.3633927466192) translate(2.117283950617278 31.27777777777778)"/><path d="M356.58 438.7v49.4h59.82v-49.4z" fill-opacity="0"/><path d="M356.58 438.7v49.4M416.4 438.7v49.4M357.12 443.18l.68-.96 58.14 41.25-.68.96z" stroke="#fff" stroke-width="3" fill="#fff"/><path d="M398.2 498.44h-31.42v-1.64h31.4z" stroke="#fff" stroke-width="2" fill="#fff"/><path d="M397.56 492.23v10.15l8.64-5.07z" stroke="#fff" stroke-width="2" fill="#fff"/><path d="M384.4 451.72l10.07 5.5-8.8 16.08-10.07-5.5z" fill="none"/><path d="M389.46 454.5c-1-.45-1-.54-1.87-.68-.86-.13-2-.2-2.73.03s-1.62.64-2.07 1.2c-.43.57-.83 1.1-.9 1.92-.1.8-.02 1.76.25 2.33.27.57.76 1.7 1.63 2.35.87.65 2.1 1.27 2.63 1.82.55.56 1.27 1.5 1.5 2.2.22.72.58 1.56.32 2.47-.25.88-.83 1.94-1.4 2.33-.58.38-1 .76-2.35.83-1.34.06-2.48-.08-3.13-.42l-.67-.32" stroke="#fff" stroke-width="3" fill-opacity="0"/><path d="M335.03 496a6 6 0 0 1 6-6h91a6 6 0 0 1 6 6v51.33a6 6 0 0 1-6 6h-91a6 6 0 0 1-6-6z" stroke="#000" stroke-opacity="0" stroke-width="2" fill="#fff" fill-opacity="0"/><use xlink:href="#w" transform="matrix(1,0,0,1,340.02996658235026,494.99687110133806) translate(2.117283950617278 31.27777777777778)"/><path d="M352.58 472.27H103.35" stroke="#cc4e00" stroke-width="5" fill="none"/><path d="M355.08 474.75h-2.56v-4.95h2.56z" stroke="#cc4e00" stroke-width=".05" fill="#cc4e00"/><path d="M103.4 472.27h-2.56" stroke="#cc4e00" stroke-width="5" fill="none"/><path d="M-1409.96 593.38a6 6 0 0 1 6-6h88a6 6 0 0 1 6 6v43.95a6 6 0 0 1-6 6h-88a6 6 0 0 1-6-6z" stroke="#000" stroke-opacity="0" stroke-width="3" fill="#fff" fill-opacity="0"/><use xlink:href="#x" transform="matrix(1,0,0,1,-1404.961597686417,592.3795226690123) translate(15.432098765432102 26.40277777777778)"/><path d="M-1251.8 653.05a6 6 0 0 1 6-6h83.74a6 6 0 0 1 6 6v18.04a6 6 0 0 1-6 6h-83.74a6 6 0 0 1-6-6z" stroke="#000" stroke-opacity="0" stroke-width="2" fill="#fff" fill-opacity="0"/><use xlink:href="#y" transform="matrix(1,0,0,1,-1246.8040006177273,652.0540801391768) translate(3.0606443209876577 17.312464444444444)"/><path d="M-1141.88 987.07v67.38a6 6 0 0 1-6 6h-149.62M-1141.88 987.13v-2.56M-1297.44 1060.45h-2.56" stroke="#008a0e" stroke-width="5" fill="none"/><path d="M-1251.8 1098.32a6 6 0 0 1 6-6h83.74a6 6 0 0 1 6 6v22a6 6 0 0 1-6 6h-83.74a6 6 0 0 1-6-6z" stroke="#000" stroke-opacity="0" stroke-width="2" fill="#fff" fill-opacity="0"/><use xlink:href="#z" transform="matrix(1,0,0,1,-1246.8040006177273,1097.321475373417) translate(3.0556443209876605 17.499964444444444)"/><path d="M-1166.58 1084.84v-46.7l-37.24 23.36zM-1241.28 1038.15v46.7l37.24-23.35z" stroke="#fff" stroke-width="2" fill="#13161d"/><path d="M-1221.45 1061.92c0-9.68 7.85-17.53 17.53-17.53 9.68 0 17.53 7.84 17.53 17.52s-7.84 17.53-17.52 17.53-17.53-7.85-17.53-17.53z" stroke="#fff" stroke-width="2" fill="#13161d"/><path d="M-1223.47 1016h38M-1223.44 1016h-1.03M-1185.5 1016h1.03M-1204.47 1017v12.7l.02.03v12.72M-1204.47 1017.03V1016" stroke="#fff" stroke-width="2" fill="none"/><path d="M-1203.47 1043.44l-.45-.06-1.5.2v-1.15h1.95z" stroke="#fff" stroke-width=".05" fill="#fff"/><path d="M-460.57 940.14v-7.34a6 6 0 0 1 6-6h16.06a6 6 0 0 0 6-6v-7.34M-460.57 940.1v1.04M-432.5 913.5v-1.04" stroke="#000" stroke-opacity="0" stroke-width="2" fill="none"/><path d="M-429.28 832.03l31.73-25.17-31.73-25.12v50.3z" stroke="#008a0e" stroke-width="3" fill="#008a0e"/><path d="M-405 781.3a6 6 0 0 1 6-6h88a6 6 0 0 1 6 6v51.34a6 6 0 0 1-6 6h-88a6 6 0 0 1-6-6z" stroke="#000" stroke-opacity="0" stroke-width="3" fill="#fff" fill-opacity="0"/><use xlink:href="#x" transform="matrix(1,0,0,1,-400,780.3055516739764) translate(15.432098765432102 31.27777777777778)"/><path d="M-666.37 909.96v-97a6 6 0 0 1 6-6h104.2M-666.37 909.9v2.56M-556.23 806.97h2.56" stroke="#008a0e" stroke-width="5" fill="none"/><path d="M-523.13 806.97h-138.9M-523.15 806.97h1.02M-662 806.97h-1.04" stroke="#000" stroke-opacity="0" stroke-width="2" fill="none"/><path d="M-667.35 909.96V761.84M-667.35 909.9v2.56" stroke="#008a0e" stroke-width="5" fill="none"/><path d="M-664.87 761.9h-4.95v-2.56h4.95z" stroke="#008a0e" stroke-width=".05" fill="#008a0e"/><path d="M-642.86 746.07v-25.3l-22.35 12.65zM-680 758.34h25.3L-667.35 736z" stroke="#fff" stroke-width="2" fill-opacity="0"/><path d="M-663.52 732.17c0 2.12-1.7 3.83-3.83 3.83-2.1 0-3.83-1.7-3.83-3.83 0-2.12 1.72-3.83 3.83-3.83 2.12 0 3.83 1.7 3.83 3.83z" stroke="#fff" stroke-width="2" fill="#fff"/><path d="M-667.7 684.6v43.02M-674.34 713.1l13.3 6.33M-674 704.1l10.52 5M-674 695.85l10.52 5" stroke="#fff" stroke-width="2" stroke-linecap="round" fill="none"/><path d="M-624.86 729.6l8.5 3.74-8.5 3.9v-7.65z" stroke="#fff" stroke-width="2" fill="#fff"/><path d="M-641.86 733.22h16" stroke="#fff" stroke-width="2" stroke-linecap="round" fill="none"/><path d="M-623.94 733.22h33a6 6 0 0 1 6 6v32.03a6 6 0 0 1-6 6h-68.92a6 6 0 0 1-6-6v-31.83a6 6 0 0 1 6-6h33M-623.9 733.22h-4.04M420.2 1101.06H351.65M420.17 1101.06h1.03M351.67 1101.06h-1.02" stroke="#000" stroke-opacity="0" stroke-width="2" fill="none"/><path d="M546.14 1074a6 6 0 0 1 6-6h111a6 6 0 0 1 6 6v67.06a6 6 0 0 1-6 6h-111a6 6 0 0 1-6-6z" stroke="#000" stroke-opacity="0" stroke-width="3" fill="#fff" fill-opacity="0"/><use xlink:href="#h" transform="matrix(1,0,0,1,551.137442192312,1073) translate(34.27777777777778 26.52777777777778)"/><use xlink:href="#n" transform="matrix(1,0,0,1,551.137442192312,1073) translate(17.055555555555557 53.19444444444445)"/><path d="M306.47 1077.03v49.4h59.81v-49.4z" fill-opacity="0"/><path d="M306.47 1077.03v49.4M366.3 1077.03v49.4M307 1081.5l.7-.95 58.13 41.25-.68.96z" stroke="#fff" stroke-width="3" fill="#fff"/><path d="M355.77 1136.77h-31.4v-1.65h31.4zM324.36 1140.7v-10.14l-8.64 5.08z" stroke="#fff" stroke-width="2" fill="#fff"/><path d="M334.3 1090.05l10.05 5.5-8.8 16.07-10.06-5.5z" fill="none"/><path d="M339.35 1092.82c-1-.44-1-.54-1.87-.67-.85-.14-2-.2-2.73.03-.72.23-1.6.64-2.06 1.2-.44.57-.84 1.1-.92 1.9-.08.83 0 1.78.26 2.35.27.56.76 1.7 1.63 2.35.87.65 2.1 1.27 2.63 1.8.54.58 1.26 1.52 1.5 2.23.2.7.57 1.56.3 2.46-.24.9-.82 1.95-1.4 2.34-.57.38-.98.76-2.34.83-1.34.06-2.48-.08-3.13-.42l-.67-.32" stroke="#fff" stroke-width="3" fill-opacity="0"/><path d="M552.93 1215.62h-16.47a4.6 4.6 0 0 1-4.6-4.6 4.6 4.6 0 0 0-4.62-4.6h-16.48M552.9 1215.62h1.03M510.8 1206.4h-1.04M553.93 1134.75v-22.86a6 6 0 0 1 6-6H605a6 6 0 0 0 6-6v-22.87M553.93 1134.72v1.03M611 1077.06v-1.02" stroke="#000" stroke-opacity="0" stroke-width="2" fill="none"/><path d="M548.66 1079.9l-31.73 25.18 31.74 25.12v-50.3z" stroke="#008a0e" stroke-width="3" fill="#008a0e"/><path d="M274.94 909.7v192.82a2.63 2.63 0 0 0 2.63 2.63H280a.2.2 0 0 1 .2.2.2.2 0 0 0 .2.2h22.07M274.94 909.76v-2.56" stroke="#008a0e" stroke-width="5" fill="none"/><path d="M304.97 1108.02h-2.56v-4.95h2.57z" stroke="#008a0e" stroke-width=".05" fill="#008a0e"/><path d="M522.8 1103.76h-18.5a.05.05 0 0 0-.05.05.05.05 0 0 1-.05.06h-18.5M522.73 1103.76h2.56M485.76 1103.86h-2.56M418.7 1101.06h-24a.2.2 0 0 0-.2.2.2.2 0 0 1-.2.2h-24M418.63 1101.06h2.57" stroke="#008a0e" stroke-width="5" fill="none"/><path d="M370.35 1103.93h-2.56v-4.95h2.55z" stroke="#008a0e" stroke-width=".05" fill="#008a0e"/><path d="M420.2 1101.06h-8.55M420.17 1101.06h1.03M411.67 1101.06h-1.02M420.68 1101.06h.52M420.17 1101.06h1.03M420.68 1101.06" stroke="#000" stroke-opacity="0" stroke-width="2" fill="none"/><path d="M284.88 1136.56a6 6 0 0 1 6-6h91a6 6 0 0 1 6 6v51.34a6 6 0 0 1-6 6h-91a6 6 0 0 1-6-6z" stroke="#000" stroke-opacity="0" stroke-width="2" fill="#fff" fill-opacity="0"/><use xlink:href="#A" transform="matrix(1,0,0,1,289.8783662497934,1135.5614373188246) translate(2.117283950617278 31.27777777777778)"/><path d="M352.54 880v49.4h59.8V880z" fill-opacity="0"/><path d="M352.54 880v49.4M412.35 880v49.4M353.08 884.48l.68-.96 58.13 41.25-.7.96z" stroke="#fff" stroke-width="3" fill="#fff"/><path d="M394.14 939.74h-31.4v-1.65h31.4z" stroke="#fff" stroke-width="2" fill="#fff"/><path d="M393.5 933.53v10.15l8.65-5.08z" stroke="#fff" stroke-width="2" fill="#fff"/><path d="M380.35 893l10.07 5.52-8.8 16.07-10.06-5.52z" fill="none"/><path d="M385.42 895.8c-1-.46-1.02-.55-1.87-.68-.86-.14-2-.2-2.73.03s-1.62.64-2.06 1.2c-.44.56-.83 1.1-.9 1.9-.1.82-.03 1.78.24 2.34.28.56.76 1.68 1.63 2.35.88.64 2.1 1.27 2.63 1.8.54.58 1.27 1.52 1.5 2.23.2.7.57 1.55.32 2.45-.25.9-.83 1.95-1.4 2.34-.6.38-1 .76-2.35.83-1.34.06-2.48-.1-3.14-.42l-.68-.33" stroke="#fff" stroke-width="3" fill-opacity="0"/><path d="M331 937.3a6 6 0 0 1 6-6h91a6 6 0 0 1 6 6v51.33a6 6 0 0 1-6 6h-91a6 6 0 0 1-6-6z" stroke="#000" stroke-opacity="0" stroke-width="2" fill="#fff" fill-opacity="0"/><use xlink:href="#B" transform="matrix(1,0,0,1,335.98483752205277,936.291932777693) translate(2.117283950617278 31.27777777777778)"/><path d="M101.18 907.2h247.36M101.25 907.2h-2.57" stroke="#1071e5" stroke-width="5" fill="none"/><path d="M351.04 909.67h-2.57v-4.95h2.57z" stroke="#1071e5" stroke-width=".05" fill="#1071e5"/><path d="M184 1060a6 6 0 0 1 6-6h52.5a6 6 0 0 1 6 6v51.33a6 6 0 0 1-6 6H190a6 6 0 0 1-6-6z" stroke="#000" stroke-opacity="0" stroke-width="3" fill="#fff" fill-opacity="0"/><use xlink:href="#C" transform="matrix(1,0,0,1,189,1059) translate(0 31.444444444444443)"/><path d="M-78.1 911.97v159.9a6 6 0 0 0 6 6.02l94.13-.02M-78.1 912.03v-2.56M21.96 1077.88h2.57M96.8 1080.75H130M96.86 1080.75H94.3" stroke="#1071e5" stroke-width="5" fill="none"/><path d="M132.5 1083.22h-2.56v-4.94h2.56z" stroke="#1071e5" stroke-width=".05" fill="#1071e5"/><path d="M132.5 1108.5l41.98-26.1-41.98-26.04v52.13z" stroke="#000" stroke-opacity="0" stroke-width="3" fill="#1071e5"/><path d="M-1393 1042.66a6 6 0 0 1 6-6h56a6 6 0 0 1 6 6v40a6 6 0 0 1-6 6h-56a6 6 0 0 1-6-6z" stroke="#000" stroke-opacity="0" stroke-width="3" fill="#fff" fill-opacity="0"/><use xlink:href="#x" transform="matrix(1,0,0,1,-1388,1041.6620312355703) translate(0 25.444444444444443)"/><path d="M-608.27 129v76.9a6 6 0 0 0 6 6h23.86a6 6 0 0 1 6 6v76.9M-608.27 129.03V128M-572.4 294.78v1.03" stroke="#000" stroke-opacity="0" stroke-width="2" fill="none"/><path d="M-423.13 364.2l31.73-25.16-31.73-25.1v50.27z" stroke="#008a0e" stroke-width="3" fill="#008a0e"/><path d="M-405 313.5a6 6 0 0 1 6-6h88a6 6 0 0 1 6 6v51.32a6 6 0 0 1-6 6h-88a6 6 0 0 1-6-6z" stroke="#000" stroke-opacity="0" stroke-width="3" fill="#fff" fill-opacity="0"/><use xlink:href="#x" transform="matrix(1,0,0,1,-400,312.48985846820693) translate(15.432098765432102 31.27777777777778)"/><path d="M-656.27 339.45h100.55M-656.2 339.45h-2.57M-555.78 339.45h2.56" stroke="#008a0e" stroke-width="5" fill="none"/><path d="M-523.13 339.16h-82.3M-523.15 339.16h1.02M-606.12 338.43v1.02M-406.87 354.23v119.7a6 6 0 0 1-6 6h-120.08a6 6 0 0 1-6-6v-159.4a6 6 0 0 0-6-6h-33M-577.93 308.52h-1.02" stroke="#000" stroke-opacity="0" stroke-width="2" fill="none"/><path d="M-658.77 467.55V279.5M-658.77 467.5v2.55" stroke="#008a0e" stroke-width="5" fill="none"/><path d="M-656.3 279.58h-4.94V277h4.95z" stroke="#008a0e" stroke-width=".05" fill="#008a0e"/><path d="M-634.28 263.74v-25.3l-22.34 12.65zM-671.42 276h25.3l-12.65-22.33z" stroke="#fff" stroke-width="2" fill-opacity="0"/><path d="M-654.93 249.84c0 2.1-1.72 3.83-3.84 3.83-2.1 0-3.83-1.72-3.83-3.83 0-2.12 1.72-3.83 3.83-3.83 2.12 0 3.84 1.72 3.84 3.84z" stroke="#fff" stroke-width="2" fill="#fff"/><path d="M-659.1 202.27v43.02M-665.76 230.76l13.3 6.34M-665.42 221.76l10.52 5M-665.42 213.52l10.52 5" stroke="#fff" stroke-width="2" stroke-linecap="round" fill="none"/><path d="M-616.28 247.06l8.52 3.75-8.52 3.9v-7.64z" stroke="#fff" stroke-width="2" fill="#fff"/><path d="M-633.28 250.9h16" stroke="#fff" stroke-width="2" stroke-linecap="round" fill="none"/><path d="M-615.36 250.9h33a6 6 0 0 1 6 6v31.82a6 6 0 0 1-6 6h-68.92a6 6 0 0 1-6-6V256.9a6 6 0 0 1 6-6h33M-615.33 250.9h-4.03" stroke="#000" stroke-opacity="0" stroke-width="2" fill="none"/><path d="M-780 200h111.4v60H-780z" fill="#fff" fill-opacity="0"/><use xlink:href="#D" transform="matrix(1,0,0,1,-775,205) translate(0 17.77774222222222)"/><use xlink:href="#E" transform="matrix(1,0,0,1,-775,205) translate(0 44.444355555555546)"/><use xlink:href="#F" transform="matrix(1,0,0,1,-775,205) translate(55.55544444444443 44.444355555555546)"/><use xlink:href="#G" transform="matrix(1,0,0,1,-775,205) translate(0 71.11096888888888)"/><path d="M-945.2 1041.04a6 6 0 0 1 6-6h91a6 6 0 0 1 6 6v51.33a6 6 0 0 1-6 6h-91a6 6 0 0 1-6-6z" stroke="#000" stroke-opacity="0" stroke-width="2" fill="#fff" fill-opacity="0"/><use xlink:href="#H" transform="matrix(1,0,0,1,-940.212355689673,1040.0351812399904) translate(9.524765308641989 31.27774222222222)"/><path d="M-43.5 1276.82h-16.02a.04.04 0 0 1-.04-.04.04.04 0 0 0-.03-.03h-12.5a6 6 0 0 1-6-6v-88.25" stroke="#1071e5" stroke-width="5" fill="none"/><path d="M-41 1279.3h-2.56v-4.96H-41z" stroke="#1071e5" stroke-width=".05" fill="#1071e5"/><path d="M-78.1 1182.56V1180" stroke="#1071e5" stroke-width="5" fill="none"/><path d="M696.97 564.83a6 6 0 0 1 6-6h91a6 6 0 0 1 6 6v51.33a6 6 0 0 1-6 6h-91a6 6 0 0 1-6-6z" stroke="#000" stroke-opacity="0" stroke-width="2" fill="#fff" fill-opacity="0"/><use xlink:href="#I" transform="matrix(1,0,0,1,701.9688638177163,563.8256993090864) translate(3.9691358024691397 31.27777777777778)"/><path d="M-788.5 880.6v49.38h59.82v-49.4z" fill-opacity="0"/><path d="M-788.5 880.6v49.38M-728.68 880.6v49.38M-787.95 885.06l.68-.96 58.14 41.26-.68.96z" stroke="#fff" stroke-width="3" fill="#fff"/><path d="M-746.88 940.33h-31.4v-1.65h31.4z" stroke="#fff" stroke-width="2" fill="#fff"/><path d="M-747.52 934.12v10.15l8.65-5.08z" stroke="#fff" stroke-width="2" fill="#fff"/><path d="M-760.67 893.6l10.06 5.5-8.8 16.08-10.07-5.5z" fill="none"/><path d="M-755.6 896.38c-1-.45-1.03-.54-1.88-.67-.86-.13-2-.18-2.73.04-.73.23-1.62.64-2.07 1.2-.43.56-.83 1.1-.9 1.9-.1.82-.02 1.78.24 2.34.28.57.77 1.7 1.63 2.36.88.64 2.1 1.27 2.63 1.8.54.58 1.27 1.52 1.5 2.23.22.7.58 1.55.32 2.45-.25.9-.83 1.95-1.4 2.34-.58.37-1 .76-2.35.83-1.34.05-2.48-.1-3.13-.43l-.67-.33" stroke="#fff" stroke-width="3" fill-opacity="0"/><path d="M-808.5 945.74a6 6 0 0 1 6-6h91a6 6 0 0 1 6 6v51.33a6 6 0 0 1-6 6h-91a6 6 0 0 1-6-6z" stroke="#000" stroke-opacity="0" stroke-width="2" fill="#fff" fill-opacity="0"/><use xlink:href="#J" transform="matrix(1,0,0,1,-803.4884661391129,944.7364673828034) translate(2.117283950617278 31.27777777777778)"/><path d="M-704.5 971.4h35.76a6 6 0 0 1 6 6v21.35a6 6 0 0 0 6 6H-621M-621.03 1004.75h1.03M-905.94 912.02H-791M-905.9 912.02h-1.04" stroke="#000" stroke-opacity="0" stroke-width="2" fill="none"/><path d="M-792.5 912.02h-111.94" stroke="#008a0e" stroke-width="5" fill="none"/><path d="M-790 914.5h-2.55v-4.96h2.56z" stroke="#008a0e" stroke-width=".05" fill="#008a0e"/><path d="M-904.37 912.02h-2.57" stroke="#008a0e" stroke-width="5" fill="none"/><path d="M63.06 1276.75H8.16M63 1276.75h2.56" stroke="#1071e5" stroke-width="5" fill="none"/><path d="M8.23 1279.22H5.67v-4.95h2.56z" stroke="#1071e5" stroke-width=".05" fill="#1071e5"/><path d="M-924.87 1012.3v33.88l29.9-16.94zM-864.87 1046.18v-33.87l-29.9 16.94z" stroke="#fff" stroke-width="2" fill="#13161d"/><path d="M-894.77 997.85v12.9M-894.77 997.87v-1.02" stroke="#fff" stroke-width="2" fill="none"/><path d="M-894.77 1026l-4.64-14.26h9.26z" stroke="#fff" stroke-width="2" fill="#fff"/><path d="M-912.7 997.85h38" stroke="#fff" stroke-width="2" stroke-linecap="round" fill="none"/><path d="M-1131.2 546v60.67a6 6 0 0 1-6 6h-139.63M-1131.2 546.07v-2.57M-1276.76 612.67h-2.57" stroke="#008a0e" stroke-width="5" fill="none"/><path d="M-1278.33 613.1h32.63a.03.03 0 0 0 .04-.03.03.03 0 0 1 .03-.03h32.63M-1278.3 613.1h-1.03M-1213.03 613.04h1.03" stroke="#000" stroke-opacity="0" stroke-width="2" fill="none"/><path d="M-1166.6 636.84v-46.7l-37.23 23.36zM-1241.3 590.15v46.7l37.24-23.35z" stroke="#fff" stroke-width="2" fill="#13161d"/><path d="M-1221.46 613.92c0-9.68 7.85-17.53 17.53-17.53 9.68 0 17.53 7.84 17.53 17.52s-7.85 17.53-17.53 17.53c-9.68 0-17.53-7.85-17.53-17.53z" stroke="#fff" stroke-width="2" fill="#13161d"/><path d="M-1223.48 568h38M-1223.45 568h-1.03M-1185.5 568h1.02M-1204.48 569V581.73h.03v12.72M-1204.48 569.03V568" stroke="#fff" stroke-width="2" fill="none"/><path d="M-1203.48 595.44l-.45-.06-1.5.2v-1.15h1.95z" stroke="#fff" stroke-width=".05" fill="#fff"/><path d="M-1279.5 585.88l-31.73 25.17 31.73 25.12v-50.3zM-1279.5 1033.88l-31.73 25.17 31.73 25.12v-50.3z" stroke="#008a0e" stroke-width="3" fill="#008a0e"/><path d="M-1585.3 166.2v-46.7l-37.23 23.36zM-1660 119.5v46.7l37.24-23.34z" stroke="#fff" stroke-width="2" fill="#13161d"/><path d="M-1640.17 143.28c0-9.68 7.85-17.53 17.53-17.53 9.7 0 17.54 7.85 17.54 17.53 0 9.7-7.85 17.53-17.54 17.53-9.68 0-17.53-7.83-17.53-17.52z" stroke="#fff" stroke-width="2" fill="#13161d"/><path d="M-1642.2 97.36h38M-1642.16 97.36h-1.03M-1604.2 97.36h1M-1623.2 98.36v12.7l.03.03v12.7M-1623.2 98.4v-1.04" stroke="#fff" stroke-width="2" fill="none"/><path d="M-1622.18 124.8l-.46-.06-1.5.2v-1.15h1.96z" stroke="#fff" stroke-width=".05" fill="#fff"/><path d="M-1704.24 143.97h40.74" stroke="#008a0e" stroke-width="5" fill="none"/><path d="M-1704.18 146.45h-2.58l.04-4.95h2.54zM-1661 146.45h-2.57v-4.95h2.57z" stroke="#008a0e" stroke-width=".05" fill="#008a0e"/><g stroke="#008a0e" stroke-width="3" fill-opacity="0"><path d="M-1897.34 200h167.2c29.26-3.36 29.26-112.2 0-115.56h-167.2c-22.66 3.36-22.66 112.2 0 115.56zM-1897.34 200V82.28M-1730.14 200V82.28"/></g><path d="M-1869 102.42a6 6 0 0 1 6-6h98a6 6 0 0 1 6 6v78a6 6 0 0 1-6 6h-98a6 6 0 0 1-6-6z" stroke="#000" stroke-opacity="0" stroke-width="3" fill="#fff" fill-opacity="0"/><use xlink:href="#j" transform="matrix(1,0,0,1,-1864,101.41732283460442) translate(-8.518518518518512 17.77777777777778)"/><use xlink:href="#k" transform="matrix(1,0,0,1,-1864,101.41732283460442) translate(21.265432098765437 44.44444444444444)"/><use xlink:href="#l" transform="matrix(1,0,0,1,-1864,101.41732283460442) translate(1.882716049382715 71.11111111111111)"/><use xlink:href="#d" transform="matrix(1,0,0,1,-1864,101.41732283460442) translate(57.43827160493827 71.11111111111111)"/><path d="M-1667.25 182.3a6 6 0 0 1 6-6h83.75a6 6 0 0 1 6 6v24.66a6 6 0 0 1-6 6h-83.75a6 6 0 0 1-6-6z" stroke="#000" stroke-opacity="0" stroke-width="2" fill="#fff" fill-opacity="0"/><use xlink:href="#K" transform="matrix(1,0,0,1,-1662.2482068097265,181.28818911747828) translate(-0.7653445679012236 17.944435555555554)"/><path d="M-790 680h111.4v60H-790z" fill="#fff" fill-opacity="0"/><use xlink:href="#L" transform="matrix(1,0,0,1,-785,685) translate(0 17.77774222222222)"/><use xlink:href="#M" transform="matrix(1,0,0,1,-785,685) translate(0 44.444355555555546)"/><use xlink:href="#F" transform="matrix(1,0,0,1,-785,685) translate(43.209790123456784 44.444355555555546)"/><use xlink:href="#G" transform="matrix(1,0,0,1,-785,685) translate(0 71.11096888888888)"/><path d="M-20 285.05a6 6 0 0 1 6-6h83.75a6 6 0 0 1 6 6v18.04a6 6 0 0 1-6 6H-14a6 6 0 0 1-6-6z" stroke="#000" stroke-opacity="0" stroke-width="2" fill="#fff" fill-opacity="0"/><use xlink:href="#N" transform="matrix(1,0,0,1,-14.999999999999993,284.0540801391768) translate(3.0606443209876577 17.312464444444444)"/><path d="M65.2 268.84v-46.7L28 245.5zM-9.5 222.15v46.7l37.25-23.35z" stroke="#fff" stroke-width="2" fill="#13161d"/><path d="M10.34 245.92c0-9.68 7.85-17.53 17.53-17.53 9.7 0 17.53 7.84 17.53 17.52s-7.84 17.53-17.53 17.53c-9.68 0-17.53-7.85-17.53-17.53z" stroke="#fff" stroke-width="2" fill="#13161d"/><path d="M8.32 200h38M8.35 200H7.32M46.3 200h1.02M27.32 201v12.7l.02.03v12.72M27.32 201.03V200" stroke="#fff" stroke-width="2" fill="none"/><path d="M28.33 227.44l-.46-.06-1.5.2v-1.15h1.96z" stroke="#fff" stroke-width=".05" fill="#fff"/><path d="M119.64 270.72l31.73-25.17-31.73-25.1v50.27z" stroke="#cc4e00" stroke-width="3" fill="#cc4e00"/><path d="M149.77 220a6 6 0 0 1 6-6h88a6 6 0 0 1 6 6v51.33a6 6 0 0 1-6 6h-88a6 6 0 0 1-6-6z" stroke="#000" stroke-opacity="0" stroke-width="3" fill="#fff" fill-opacity="0"/><use xlink:href="#O" transform="matrix(1,0,0,1,154.76558736608433,219) translate(19.72222222222222 21.15277777777778)"/><use xlink:href="#P" transform="matrix(1,0,0,1,154.76558736608433,219) translate(10.52469135802469 47.81944444444444)"/><path d="M68.72 245.4h46.92" stroke="#cc4e00" stroke-width="5" fill="none"/><path d="M68.78 247.9h-2.56v-4.96h2.56zM118.14 247.9h-2.57v-4.96h2.57z" stroke="#cc4e00" stroke-width=".05" fill="#cc4e00"/><path d="M-42.5 1277.5h-79.3M-42.56 1277.5H-40" stroke="#1071e5" stroke-width="5" fill="none"/><path d="M-121.73 1279.97h-2.56v-4.95h2.57z" stroke="#1071e5" stroke-width=".05" fill="#1071e5"/><path d="M-359 1252a6 6 0 0 1 6-6h52.5a6 6 0 0 1 6 6v51.33a6 6 0 0 1-6 6H-353a6 6 0 0 1-6-6z" stroke="#000" stroke-opacity="0" stroke-width="3" fill="#fff" fill-opacity="0"/><use xlink:href="#x" transform="matrix(1,0,0,1,-354,1251) translate(0 31.444444444444443)"/><path d="M-202.3 1276.82h-33.2M-202.37 1276.82h2.56" stroke="#1071e5" stroke-width="5" fill="none"/><path d="M-235.45 1279.3H-238v-4.95h2.55z" stroke="#1071e5" stroke-width=".05" fill="#1071e5"/><path d="M-238 1249.08l-42 26.1 42 26.03v-52.12z" stroke="#000" stroke-opacity="0" stroke-width="3" fill="#1071e5"/><path d="M-125.3 1300.84v-46.7l-37.23 23.36zM-200 1254.15v46.7l37.24-23.35z" stroke="#fff" stroke-width="2" fill="#13161d"/><path d="M-180.17 1277.92c0-9.68 7.85-17.53 17.53-17.53 9.7 0 17.54 7.84 17.54 17.52s-7.85 17.53-17.54 17.53c-9.68 0-17.53-7.85-17.53-17.53z" stroke="#fff" stroke-width="2" fill="#13161d"/><path d="M-182.2 1232h38M-182.16 1232h-1.03M-144.2 1232h1M-163.2 1233v12.7l.03.03v12.72M-163.2 1233.03V1232" stroke="#fff" stroke-width="2" fill="none"/><path d="M-162.18 1259.44l-.46-.06-1.5.2v-1.15h1.96z" stroke="#fff" stroke-width=".05" fill="#fff"/><path d="M-215 1306a6 6 0 0 1 6-6h91a6 6 0 0 1 6 6v51.33a6 6 0 0 1-6 6h-91a6 6 0 0 1-6-6z" stroke="#000" stroke-opacity="0" stroke-width="2" fill="#fff" fill-opacity="0"/><use xlink:href="#Q" transform="matrix(1,0,0,1,-210,1305) translate(2.117283950617278 31.27777777777778)"/><path d="M-1089.2 778.67v132M-1089.2 778.7v-1.03M-1089.2 910.66v1.02" stroke="#fff" stroke-width="2" fill="none"/><path d="M-1913 41a6 6 0 0 1 6-6h188a6 6 0 0 1 6 6v38a6 6 0 0 1-6 6h-188a6 6 0 0 1-6-6z" stroke="#000" stroke-opacity="0" stroke-width="2" fill="#fff" fill-opacity="0"/><use xlink:href="#R" transform="matrix(1,0,0,1,-1908,40) translate(55.55563444444445 25.27774222222222)"/><path d="M-1913 369a6 6 0 0 1 6-6h188a6 6 0 0 1 6 6v38a6 6 0 0 1-6 6h-188a6 6 0 0 1-6-6z" stroke="#000" stroke-opacity="0" stroke-width="2" fill="#fff" fill-opacity="0"/><use xlink:href="#S" transform="matrix(1,0,0,1,-1908,368) translate(66.66672333333334 25.27774222222222)"/><path d="M-1913 810a6 6 0 0 1 6-6h188a6 6 0 0 1 6 6v38a6 6 0 0 1-6 6h-188a6 6 0 0 1-6-6z" stroke="#000" stroke-opacity="0" stroke-width="2" fill="#fff" fill-opacity="0"/><use xlink:href="#T" transform="matrix(1,0,0,1,-1908,809) translate(72.77782222222223 25.27774222222222)"/><path d="M-1498.53 114.18a11 11 0 0 1 11-11h22.8a11 11 0 0 1 11 11v17.44a11 11 0 0 1-11 11h-22.8a11 11 0 0 1-11-11z" stroke="#fff" stroke-width="2" fill="#13161d"/><path d="M-1504.13 126.62v32.98l27.92-16.5zM-1448.13 159.6v-32.98l-27.9 16.5z" stroke="#fff" stroke-width="2" fill="#13161d"/><g fill-opacity="0"><path d="M-1459.32 86v17.18h-35V86z"/><path d="M-1459.32 86h-35.04M-1476.5 86v17.12" stroke="#fff" stroke-width="2"/></g><path d="M-1524 174.9a6 6 0 0 1 6-6h83.75a6 6 0 0 1 6 6v24.67a6 6 0 0 1-6 6H-1518a6 6 0 0 1-6-6z" stroke="#000" stroke-opacity="0" stroke-width="2" fill="#fff" fill-opacity="0"/><use xlink:href="#U" transform="matrix(1,0,0,1,-1519,173.904848815156) translate(-3.2344754320987548 17.944435555555554)"/><path d="M-1581.8 142.86h74.17" stroke="#008a0e" stroke-width="5" fill="none"/><path d="M-1581.73 145.33h-2.56v-4.95h2.57zM-1505.13 145.33h-2.56v-4.95h2.57z" stroke="#008a0e" stroke-width=".05" fill="#008a0e"/><path d="M-1305.83 141.82h83.85a6 6 0 0 0 6-6V86a6 6 0 0 1 6-6h61.5" stroke="#008a0e" stroke-width="5" fill="none"/><path d="M-1305.77 144.3h-2.56v-4.96h2.56z" stroke="#008a0e" stroke-width=".05" fill="#008a0e"/><path d="M-1148.54 80h2.56M-1222.4 141.82h.42a6 6 0 0 1 6 6V194a6 6 0 0 0 6 6h61.5M-1222.33 141.82h-2.56M-1148.54 200h2.56" stroke="#008a0e" stroke-width="5" fill="none"/><path d="M-1145.2 104.96l31.72-25.17-31.73-25.12v50.28zM-1145.2 224.96l31.72-25.17-31.73-25.12v50.28z" stroke="#008a0e" stroke-width="3" fill="#008a0e"/><path d="M-1118.98 50a6 6 0 0 1 6-6h111a6 6 0 0 1 6 6v67.06a6 6 0 0 1-6 6h-111a6 6 0 0 1-6-6z" stroke="#000" stroke-opacity="0" stroke-width="3" fill="#fff" fill-opacity="0"/><use xlink:href="#m" transform="matrix(1,0,0,1,-1113.9800424874811,49.00000000000001) translate(28.567901234567902 26.52777777777778)"/><use xlink:href="#n" transform="matrix(1,0,0,1,-1113.9800424874811,49.00000000000001) translate(17.055555555555557 53.19444444444445)"/><path d="M-1119.04 170a6 6 0 0 1 6-6h111a6 6 0 0 1 6 6v67.06a6 6 0 0 1-6 6h-111a6 6 0 0 1-6-6z" stroke="#000" stroke-opacity="0" stroke-width="3" fill="#fff" fill-opacity="0"/><use xlink:href="#h" transform="matrix(1,0,0,1,-1114.0381718727406,169) translate(34.27777777777778 26.52777777777778)"/><use xlink:href="#n" transform="matrix(1,0,0,1,-1114.0381718727406,169) translate(17.055555555555557 53.19444444444445)"/><path d="M-1360 449h44.67v43.63H-1360z" stroke="#fff" stroke-width="2" fill-opacity="0"/><path d="M-1358.9 491.32l41.57-40.94M-1358.88 491.3l-.73.72M-1317.35 450.4l.73-.72" stroke="#fff" stroke-width="2" fill="none"/><path d="M-1311.83 470.82h68.2" stroke="#008a0e" stroke-width="5" fill="none"/><path d="M-1311.77 473.3h-2.56v-4.96h2.56zM-1241.13 473.3h-2.56v-4.96h2.57z" stroke="#008a0e" stroke-width=".05" fill="#008a0e"/><path d="M-1440.5 470.82h77" stroke="#008a0e" stroke-width="5" fill="none"/><path d="M-1440.44 473.3h-2.56v-4.96h2.56zM-1361 473.3h-2.57v-4.96h2.57z" stroke="#008a0e" stroke-width=".05" fill="#008a0e"/><path d="M-1581.8 471.68h78.3" stroke="#008a0e" stroke-width="5" fill="none"/><path d="M-1581.73 474.16h-2.56v-4.95h2.57zM-1501 474.16h-2.56v-4.95h2.56z" stroke="#008a0e" stroke-width=".05" fill="#008a0e"/><path d="M-1386 506a6 6 0 0 1 6-6h83.75a6 6 0 0 1 6 6v24.67a6 6 0 0 1-6 6H-1380a6 6 0 0 1-6-6z" stroke="#000" stroke-opacity="0" stroke-width="2" fill="#fff" fill-opacity="0"/><use xlink:href="#V" transform="matrix(1,0,0,1,-1381,505) translate(2.567982098765441 19.46524222222222)"/><path d="M-1367 889h44.67v43.63H-1367z" stroke="#fff" stroke-width="2" fill-opacity="0"/><path d="M-1365.9 931.32l41.57-40.94M-1365.88 931.3l-.73.72M-1324.35 890.4l.73-.72" stroke="#fff" stroke-width="2" fill="none"/><path d="M-1393 946a6 6 0 0 1 6-6h83.75a6 6 0 0 1 6 6v24.67a6 6 0 0 1-6 6H-1387a6 6 0 0 1-6-6z" stroke="#000" stroke-opacity="0" stroke-width="2" fill="#fff" fill-opacity="0"/><use xlink:href="#W" transform="matrix(1,0,0,1,-1388,945) translate(2.567982098765441 19.46524222222222)"/><path d="M-1252.32 910.82H-1318.83" stroke="#008a0e" stroke-width="5" fill="none"/><path d="M-1249.82 913.3h-2.57v-4.96h2.58zM-1318.76 913.3h-2.57v-4.96h2.57z" stroke="#008a0e" stroke-width=".05" fill="#008a0e"/><path d="M-1354 120h44.67v43.63H-1354z" stroke="#fff" stroke-width="2" fill-opacity="0"/><path d="M-1352.9 162.32l41.57-40.94M-1352.88 162.3l-.73.72M-1311.35 121.4l.73-.72" stroke="#fff" stroke-width="2" fill="none"/><path d="M-1380 177a6 6 0 0 1 6-6h83.75a6 6 0 0 1 6 6v24.67a6 6 0 0 1-6 6H-1374a6 6 0 0 1-6-6z" stroke="#000" stroke-opacity="0" stroke-width="2" fill="#fff" fill-opacity="0"/><use xlink:href="#X" transform="matrix(1,0,0,1,-1375,176) translate(2.567982098765441 19.46524222222222)"/><path d="M-1444.63 143.1h87.13" stroke="#008a0e" stroke-width="5" fill="none"/><path d="M-1444.56 145.6h-2.57v-4.96h2.57zM-1355 145.6h-2.56v-4.96h2.56z" stroke="#008a0e" stroke-width=".05" fill="#008a0e"/><path d="M-66 1316a6 6 0 0 1 6-6h83.75a6 6 0 0 1 6 6v24.67a6 6 0 0 1-6 6H-60a6 6 0 0 1-6-6z" stroke="#000" stroke-opacity="0" stroke-width="2" fill="#fff" fill-opacity="0"/><use xlink:href="#Y" transform="matrix(1,0,0,1,-61,1315) translate(2.567982098765441 19.46524222222222)"/><path d="M-78.1 1116V987.9" stroke="#1071e5" stroke-width="5" fill="none"/><path d="M-75.64 1118.5h-4.95v-2.56h4.96z" stroke="#1071e5" stroke-width=".05" fill="#1071e5"/><path d="M-78.1 987.96v-2.57" stroke="#1071e5" stroke-width="5" fill="none"/><path d="M-40 1255H4.67v43.63H-40z" stroke="#fff" stroke-width="2" fill-opacity="0"/><path d="M-38.9 1297.32l41.57-40.94M-38.88 1297.3l-.73.72M2.65 1256.4l.73-.72" stroke="#fff" stroke-width="2" fill="none"/><path d="M-52.32 1120h-49.4v59.8h49.4z" fill-opacity="0"/><path d="M-52.32 1120h-49.4M-52.32 1179.8h-49.4M-56.8 1120.54l.97.68-41.26 58.14-.95-.68z" stroke="#fff" stroke-width="3" fill="#fff"/><path d="M-112.06 1169.3v-31.4h1.65v31.4z" stroke="#fff" stroke-width="2" fill="#fff"/><path d="M-116 1137.9h10.15l-5.07-8.65z" stroke="#fff" stroke-width="2" fill="#fff"/><path d="M-65.33 1147.82l-5.5 10.06-16.08-8.8 5.5-10.06z" fill="none"/><path d="M-68.1 1152.88c.44-1 .53-1.02.66-1.87.14-.85.2-1.98-.03-2.72-.23-.72-.64-1.62-1.2-2.06-.56-.43-1.1-.83-1.9-.9-.82-.1-1.78-.02-2.34.24-.58.28-1.7.77-2.37 1.63-.64.87-1.27 2.1-1.8 2.62-.58.54-1.52 1.27-2.23 1.5-.7.22-1.55.58-2.45.32-.9-.25-1.95-.83-2.34-1.4-.36-.6-.75-1-.82-2.35-.06-1.35.1-2.5.42-3.14l.33-.67" stroke="#fff" stroke-width="3" fill-opacity="0"/><path d="M-223 1126a6 6 0 0 1 6-6h91a6 6 0 0 1 6 6v51.33a6 6 0 0 1-6 6h-91a6 6 0 0 1-6-6z" stroke="#000" stroke-opacity="0" stroke-width="2" fill="#fff" fill-opacity="0"/><use xlink:href="#Z" transform="matrix(1,0,0,1,-218,1125) translate(2.117283950617278 31.27777777777778)"/><path d="M-1500 60c0 11.05-8.95 20-20 20s-20-8.95-20-20 8.95-20 20-20 20 8.95 20 20z" stroke="#fff" stroke-width="2" fill-opacity="0"/><use xlink:href="#aa" transform="matrix(1,0,0,1,-1535,45) translate(1.4247530864197524 19.65277777777778)"/><path d="M-1520 83.5v56.86" stroke="#008a0e" stroke-width="5" fill="none"/><path d="M-1520.05 81l1.6-.05.92-.2v2.8l-4.94.02V80.7z" stroke="#008a0e" stroke-width=".05" fill="#008a0e"/><path d="M-1520 140.3v2.56" stroke="#008a0e" stroke-width="5" fill="none"/><path d="M-1412 60c0 11.05-8.95 20-20 20s-20-8.95-20-20 8.95-20 20-20 20 8.95 20 20z" stroke="#fff" stroke-width="2" fill-opacity="0"/><use xlink:href="#ab" transform="matrix(1,0,0,1,-1447,45) translate(1.4247530864197524 19.65277777777778)"/><path d="M-1432 83.5v56.86" stroke="#008a0e" stroke-width="5" fill="none"/><path d="M-1432.05 81l1.6-.05.92-.2v2.8l-4.94.02V80.7z" stroke="#008a0e" stroke-width=".05" fill="#008a0e"/><path d="M-1432 140.3v2.56" stroke="#008a0e" stroke-width="5" fill="none"/><path d="M-1497 390c0 11.05-8.95 20-20 20s-20-8.95-20-20 8.95-20 20-20 20 8.95 20 20z" stroke="#fff" stroke-width="2" fill-opacity="0"/><use xlink:href="#ac" transform="matrix(1,0,0,1,-1532,375) translate(1.4247530864197524 19.65277777777778)"/><path d="M-1517 413.5v56.86" stroke="#008a0e" stroke-width="5" fill="none"/><path d="M-1517.05 411l1.6-.05.92-.2v2.8h-4.94v-2.85z" stroke="#008a0e" stroke-width=".05" fill="#008a0e"/><path d="M-1517 470.3v2.56" stroke="#008a0e" stroke-width="5" fill="none"/><path d="M-1407 390c0 11.05-8.95 20-20 20s-20-8.95-20-20 8.95-20 20-20 20 8.95 20 20z" stroke="#fff" stroke-width="2" fill-opacity="0"/><use xlink:href="#ad" transform="matrix(1,0,0,1,-1442,375) translate(1.4247530864197524 19.65277777777778)"/><path d="M-1427 413.5v56.86" stroke="#008a0e" stroke-width="5" fill="none"/><path d="M-1427.05 411l1.6-.05.92-.2v2.8h-4.94v-2.85z" stroke="#008a0e" stroke-width=".05" fill="#008a0e"/><path d="M-1427 470.3v2.56" stroke="#008a0e" stroke-width="5" fill="none"/><path d="M-1236 387c0 11.05-8.95 20-20 20s-20-8.95-20-20 8.95-20 20-20 20 8.95 20 20z" stroke="#fff" stroke-width="2" fill-opacity="0"/><use xlink:href="#ae" transform="matrix(1,0,0,1,-1271,372) translate(1.4247530864197524 19.65277777777778)"/><path d="M-1256 410.5v56.86" stroke="#008a0e" stroke-width="5" fill="none"/><path d="M-1256.05 408l1.6-.05.92-.2v2.8h-4.94v-2.85z" stroke="#008a0e" stroke-width=".05" fill="#008a0e"/><path d="M-1256 467.3v2.56" stroke="#008a0e" stroke-width="5" fill="none"/><path d="M-1147 387c0 11.05-8.95 20-20 20s-20-8.95-20-20 8.95-20 20-20 20 8.95 20 20z" stroke="#fff" stroke-width="2" fill-opacity="0"/><g><use xlink:href="#af" transform="matrix(1,0,0,1,-1182,372) translate(1.4247530864197524 19.65277777777778)"/></g><path d="M-1167 410.5v56.86" stroke="#008a0e" stroke-width="5" fill="none"/><path d="M-1167.05 408l1.6-.05.92-.2v2.8h-4.94v-2.85z" stroke="#008a0e" stroke-width=".05" fill="#008a0e"/><path d="M-1167 467.3v2.56" stroke="#008a0e" stroke-width="5" fill="none"/><path d="M-1245 827c0 11.05-8.95 20-20 20s-20-8.95-20-20 8.95-20 20-20 20 8.95 20 20z" stroke="#fff" stroke-width="2" fill-opacity="0"/><g><use xlink:href="#ag" transform="matrix(1,0,0,1,-1280,812) translate(1.4247530864197524 19.65277777777778)"/></g><path d="M-1265 850.5v56.86" stroke="#008a0e" stroke-width="5" fill="none"/><path d="M-1265.05 848l1.6-.05.92-.2v2.82h-4.94v-2.87z" stroke="#008a0e" stroke-width=".05" fill="#008a0e"/><path d="M-1265 907.3v2.56" stroke="#008a0e" stroke-width="5" fill="none"/><path d="M-1158 827c0 11.05-8.95 20-20 20s-20-8.95-20-20 8.95-20 20-20 20 8.95 20 20z" stroke="#fff" stroke-width="2" fill-opacity="0"/><g><use xlink:href="#ah" transform="matrix(1,0,0,1,-1193,812) translate(1.4247530864197524 19.65277777777778)"/></g><path d="M-1178 850.5v56.86" stroke="#008a0e" stroke-width="5" fill="none"/><path d="M-1178.05 848l1.6-.05.92-.2v2.82h-4.94v-2.87z" stroke="#008a0e" stroke-width=".05" fill="#008a0e"/><path d="M-1178 907.3v2.56M-929.52 582.24H-1000.04" stroke="#008a0e" stroke-width="5" fill="none"/><path d="M-927.02 584.72h-2.57v-4.95h2.58z" stroke="#008a0e" stroke-width=".05" fill="#008a0e"/><path d="M-1000 582.24h-2.55M-488.72 339.16h81.22M-488.66 339.16h-2.56" stroke="#008a0e" stroke-width="5" fill="none"/><path d="M-405 341.63h-2.56v-4.95h2.56z" stroke="#008a0e" stroke-width=".05" fill="#008a0e"/><path d="M-488.72 806.97h81.22M-488.66 806.97h-2.56" stroke="#008a0e" stroke-width="5" fill="none"/><path d="M-405 809.45h-2.56v-4.95h2.56z" stroke="#008a0e" stroke-width=".05" fill="#008a0e"/><g><path d="M-1576.87 935.77V889.1l-37.24 23.33z" stroke="#fff" stroke-width="2" fill="#13161d"/></g><g><path d="M-1651.58 889.1v46.67l37.24-23.34z" stroke="#fff" stroke-width="2" fill="#13161d"/></g><g><path d="M-1631.75 912.86c0-9.7 7.85-17.54 17.53-17.54 9.7 0 17.53 7.85 17.53 17.54 0 9.68-7.83 17.53-17.52 17.53-9.68 0-17.53-7.86-17.53-17.54z" stroke="#fff" stroke-width="2" fill="#13161d"/></g><path d="M-1633.77 866.93h38M-1633.74 866.93h-1.03M-1595.8 866.93h1.03M-1614.77 867.93v12.7l.02.03v12.72M-1614.77 867.96v-1.03" stroke="#fff" stroke-width="2" fill="none"/><path d="M-1613.76 894.38l-.46-.06-1.5.2v-1.16h1.96z" stroke="#fff" stroke-width=".05" fill="#fff"/><defs><path fill="#fff" d="M153-248C145-148 188 4 80 4 36 3 13-21 6-62l32-5c4 25 16 42 43 43 27 0 39-20 39-49v-147H72v-28h81" id="ai"/><path fill="#fff" d="M30 0v-248h187v28H63v79h144v27H63v87h162V0H30" id="aj"/><path fill="#fff" d="M127-220V0H93v-220H8v-28h204v28h-85" id="ak"/><path fill="#fff" d="M16-82v-28h88v28H16" id="al"/><path fill="#fff" d="M205 0l-28-72H64L36 0H1l101-248h38L239 0h-34zm-38-99l-47-123c-12 45-31 82-46 123h93" id="am"/><g id="a"><use transform="matrix(0.06172839506172839,0,0,0.06172839506172839,0,0)" xlink:href="#ai"/><use transform="matrix(0.06172839506172839,0,0,0.06172839506172839,11.11111111111111,0)" xlink:href="#aj"/><use transform="matrix(0.06172839506172839,0,0,0.06172839506172839,25.925925925925924,0)" xlink:href="#ak"/><use transform="matrix(0.06172839506172839,0,0,0.06172839506172839,38.20987654320987,0)" xlink:href="#al"/><use transform="matrix(0.06172839506172839,0,0,0.06172839506172839,45.55555555555555,0)" xlink:href="#am"/></g><path fill="#fff" d="M190 0L58-211 59 0H30v-248h39L202-35l-2-213h31V0h-41" id="an"/><path fill="#fff" d="M194 0L95-120 63-95V0H30v-248h33v124l119-124h40L117-140 236 0h-42" id="ao"/><g id="b"><use transform="matrix(0.06172839506172839,0,0,0.06172839506172839,0,0)" xlink:href="#ak"/><use transform="matrix(0.06172839506172839,0,0,0.06172839506172839,11.851851851851851,0)" xlink:href="#am"/><use transform="matrix(0.06172839506172839,0,0,0.06172839506172839,26.666666666666664,0)" xlink:href="#an"/><use transform="matrix(0.06172839506172839,0,0,0.06172839506172839,42.654320987654316,0)" xlink:href="#ao"/></g><path fill="#fff" d="M27 0v-27h64v-190l-56 39v-29l58-41h29v221h61V0H27" id="ap"/><path fill="#fff" d="M101-251c68 0 85 55 85 127S166 4 100 4C33 4 14-52 14-124c0-73 17-127 87-127zm-1 229c47 0 54-49 54-102s-4-102-53-102c-51 0-55 48-55 102 0 53 5 102 54 102" id="aq"/><path fill="#fff" d="M101-251c82-7 93 87 43 132L82-64C71-53 59-42 53-27h129V0H18c2-99 128-94 128-182 0-28-16-43-45-43s-46 15-49 41l-32-3c6-41 34-60 81-64" id="ar"/><g id="c"><use transform="matrix(0.06172839506172839,0,0,0.06172839506172839,0,0)" xlink:href="#ap"/><use transform="matrix(0.06172839506172839,0,0,0.06172839506172839,12.345679012345679,0)" xlink:href="#aq"/><use transform="matrix(0.06172839506172839,0,0,0.06172839506172839,24.691358024691358,0)" xlink:href="#ar"/><use transform="matrix(0.06172839506172839,0,0,0.06172839506172839,37.03703703703704,0)" xlink:href="#aq"/></g><path fill="#fff" d="M115-194c55 1 70 41 70 98S169 2 115 4C84 4 66-9 55-30l1 105H24l-1-265h31l2 30c10-21 28-34 59-34zm-8 174c40 0 45-34 45-75s-6-73-45-74c-42 0-51 32-51 76 0 43 10 73 51 73" id="as"/><path fill="#fff" d="M135-143c-3-34-86-38-87 0 15 53 115 12 119 90S17 21 10-45l28-5c4 36 97 45 98 0-10-56-113-15-118-90-4-57 82-63 122-42 12 7 21 19 24 35" id="at"/><path fill="#fff" d="M24-231v-30h32v30H24zM24 0v-190h32V0H24" id="au"/><path fill="#fff" d="M141-36C126-15 110 5 73 4 37 3 15-17 15-53c-1-64 63-63 125-63 3-35-9-54-41-54-24 1-41 7-42 31l-33-3c5-37 33-52 76-52 45 0 72 20 72 64v82c-1 20 7 32 28 27v20c-31 9-61-2-59-35zM48-53c0 20 12 33 32 33 41-3 63-29 60-74-43 2-92-5-92 41" id="av"/><g id="d"><use transform="matrix(0.06172839506172839,0,0,0.06172839506172839,0,0)" xlink:href="#as"/><use transform="matrix(0.06172839506172839,0,0,0.06172839506172839,12.345679012345679,0)" xlink:href="#at"/><use transform="matrix(0.06172839506172839,0,0,0.06172839506172839,23.45679012345679,0)" xlink:href="#au"/><use transform="matrix(0.06172839506172839,0,0,0.06172839506172839,28.333333333333336,0)" xlink:href="#av"/></g><path fill="#fff" d="M30 0v-248h33v221h125V0H30" id="aw"/><path fill="#fff" d="M140-251c81 0 123 46 123 126C263-46 219 4 140 4 59 4 17-45 17-125s42-126 123-126zm0 227c63 0 89-41 89-101s-29-99-89-99c-61 0-89 39-89 99S79-25 140-24" id="ax"/><path fill="#fff" d="M195 0l-74-108L45 0H8l94-129-87-119h37l69 98 67-98h37l-84 118L233 0h-38" id="ay"/><g id="e"><use transform="matrix(0.06172839506172839,0,0,0.06172839506172839,0,0)" xlink:href="#aw"/><use transform="matrix(0.06172839506172839,0,0,0.06172839506172839,12.345679012345679,0)" xlink:href="#ax"/><use transform="matrix(0.06172839506172839,0,0,0.06172839506172839,29.629629629629626,0)" xlink:href="#ay"/></g><g id="f"><use transform="matrix(0.06172839506172839,0,0,0.06172839506172839,0,0)" xlink:href="#ak"/><use transform="matrix(0.06172839506172839,0,0,0.06172839506172839,11.851851851851851,0)" xlink:href="#am"/><use transform="matrix(0.06172839506172839,0,0,0.06172839506172839,26.666666666666664,0)" xlink:href="#an"/><use transform="matrix(0.06172839506172839,0,0,0.06172839506172839,42.654320987654316,0)" xlink:href="#ao"/></g><path fill="#fff" d="M64 0c3-98 48-159 88-221H18v-27h164v26C143-157 98-101 97 0H64" id="az"/><path fill="#fff" d="M155-56V0h-30v-56H8v-25l114-167h33v167h35v25h-35zm-30-156c-27 46-58 90-88 131h88v-131" id="aA"/><path fill="#fff" d="M54-142c48-35 137-8 131 61C196 18 31 33 14-55l32-4c7 23 22 37 52 37 35-1 51-22 54-58 4-55-73-65-99-34H22l8-134h141v27H59" id="aB"/><g id="g"><use transform="matrix(0.06172839506172839,0,0,0.06172839506172839,0,0)" xlink:href="#az"/><use transform="matrix(0.06172839506172839,0,0,0.06172839506172839,12.345679012345679,0)" xlink:href="#aA"/><use transform="matrix(0.06172839506172839,0,0,0.06172839506172839,24.691358024691358,0)" xlink:href="#aB"/></g><g id="h"><use transform="matrix(0.06172839506172839,0,0,0.06172839506172839,0,0)" xlink:href="#aw"/><use transform="matrix(0.06172839506172839,0,0,0.06172839506172839,12.345679012345679,0)" xlink:href="#ax"/><use transform="matrix(0.06172839506172839,0,0,0.06172839506172839,29.629629629629626,0)" xlink:href="#ay"/></g><path fill="#fff" d="M63-220v92h138v28H63V0H30v-248h175v28H63" id="aC"/><path fill="#fff" d="M33 0v-248h34V0H33" id="aD"/><g id="i"><use transform="matrix(0.06172839506172839,0,0,0.06172839506172839,0,0)" xlink:href="#aC"/><use transform="matrix(0.06172839506172839,0,0,0.06172839506172839,13.518518518518517,0)" xlink:href="#aD"/><use transform="matrix(0.06172839506172839,0,0,0.06172839506172839,19.691358024691358,0)" xlink:href="#aw"/><use transform="matrix(0.06172839506172839,0,0,0.06172839506172839,32.03703703703704,0)" xlink:href="#aw"/></g><path fill="#fff" d="M233-177c-1 41-23 64-60 70L243 0h-38l-65-103H63V0H30v-248c88 3 205-21 203 71zM63-129c60-2 137 13 137-47 0-61-80-42-137-45v92" id="aE"/><path fill="#fff" d="M143 4C61 4 22-44 18-125c-5-107 100-154 193-111 17 8 29 25 37 43l-32 9c-13-25-37-40-76-40-61 0-88 39-88 99 0 61 29 100 91 101 35 0 62-11 79-27v-45h-74v-28h105v86C228-13 192 4 143 4" id="aF"/><g id="j"><use transform="matrix(0.06172839506172839,0,0,0.06172839506172839,0,0)" xlink:href="#an"/><use transform="matrix(0.06172839506172839,0,0,0.06172839506172839,15.987654320987653,0)" xlink:href="#aD"/><use transform="matrix(0.06172839506172839,0,0,0.06172839506172839,22.160493827160494,0)" xlink:href="#ak"/><use transform="matrix(0.06172839506172839,0,0,0.06172839506172839,35.67901234567901,0)" xlink:href="#aE"/><use transform="matrix(0.06172839506172839,0,0,0.06172839506172839,51.666666666666664,0)" xlink:href="#ax"/><use transform="matrix(0.06172839506172839,0,0,0.06172839506172839,68.9506172839506,0)" xlink:href="#aF"/><use transform="matrix(0.06172839506172839,0,0,0.06172839506172839,86.23456790123456,0)" xlink:href="#aj"/><use transform="matrix(0.06172839506172839,0,0,0.06172839506172839,101.04938271604937,0)" xlink:href="#an"/></g><g id="k"><use transform="matrix(0.06172839506172839,0,0,0.06172839506172839,0,0)" xlink:href="#ak"/><use transform="matrix(0.06172839506172839,0,0,0.06172839506172839,11.851851851851851,0)" xlink:href="#am"/><use transform="matrix(0.06172839506172839,0,0,0.06172839506172839,26.666666666666664,0)" xlink:href="#an"/><use transform="matrix(0.06172839506172839,0,0,0.06172839506172839,42.654320987654316,0)" xlink:href="#ao"/></g><g id="l"><use transform="matrix(0.06172839506172839,0,0,0.06172839506172839,0,0)" xlink:href="#ar"/><use transform="matrix(0.06172839506172839,0,0,0.06172839506172839,12.345679012345679,0)" xlink:href="#az"/><use transform="matrix(0.06172839506172839,0,0,0.06172839506172839,24.691358024691358,0)" xlink:href="#aq"/><use transform="matrix(0.06172839506172839,0,0,0.06172839506172839,37.03703703703704,0)" xlink:href="#aq"/></g><path fill="#fff" d="M232-93c-1 65-40 97-104 97C67 4 28-28 28-90v-158h33c8 89-33 224 67 224 102 0 64-133 71-224h33v155" id="aG"/><g id="m"><use transform="matrix(0.06172839506172839,0,0,0.06172839506172839,0,0)" xlink:href="#aC"/><use transform="matrix(0.06172839506172839,0,0,0.06172839506172839,13.518518518518517,0)" xlink:href="#aG"/><use transform="matrix(0.06172839506172839,0,0,0.06172839506172839,29.50617283950617,0)" xlink:href="#aj"/><use transform="matrix(0.06172839506172839,0,0,0.06172839506172839,44.32098765432099,0)" xlink:href="#aw"/></g><path fill="#fff" d="M30-248c87 1 191-15 191 75 0 78-77 80-158 76V0H30v-248zm33 125c57 0 124 11 124-50 0-59-68-47-124-48v98" id="aH"/><g id="n"><use transform="matrix(0.06172839506172839,0,0,0.06172839506172839,0,0)" xlink:href="#aH"/><use transform="matrix(0.06172839506172839,0,0,0.06172839506172839,14.814814814814813,0)" xlink:href="#aG"/><use transform="matrix(0.06172839506172839,0,0,0.06172839506172839,30.80246913580247,0)" xlink:href="#aE"/><use transform="matrix(0.06172839506172839,0,0,0.06172839506172839,46.79012345679012,0)" xlink:href="#aF"/><use transform="matrix(0.06172839506172839,0,0,0.06172839506172839,64.07407407407408,0)" xlink:href="#aj"/></g><path fill="#fff" d="M212-179c-10-28-35-45-73-45-59 0-87 40-87 99 0 60 29 101 89 101 43 0 62-24 78-52l27 14C228-24 195 4 139 4 59 4 22-46 18-125c-6-104 99-153 187-111 19 9 31 26 39 46" id="aI"/><path fill="#fff" d="M137-103V0h-34v-103L8-248h37l75 118 75-118h37" id="aJ"/><g id="o"><use transform="matrix(0.06172827160493826,0,0,0.06172827160493826,0,0)" xlink:href="#aI"/><use transform="matrix(0.06172827160493826,0,0,0.06172827160493826,15.987622345679009,0)" xlink:href="#aJ"/><use transform="matrix(0.06172827160493826,0,0,0.06172827160493826,30.802407530864194,0)" xlink:href="#aw"/><use transform="matrix(0.06172827160493826,0,0,0.06172827160493826,43.14806185185185,0)" xlink:href="#al"/><use transform="matrix(0.06172827160493826,0,0,0.06172827160493826,50.4937261728395,0)" xlink:href="#aq"/><use transform="matrix(0.06172827160493826,0,0,0.06172827160493826,62.83938049382715,0)" xlink:href="#aq"/><use transform="matrix(0.06172827160493826,0,0,0.06172827160493826,75.1850348148148,0)" xlink:href="#ap"/></g><g id="p"><use transform="matrix(0.06172827160493826,0,0,0.06172827160493826,0,0)" xlink:href="#aE"/><use transform="matrix(0.06172827160493826,0,0,0.06172827160493826,15.987622345679009,0)" xlink:href="#aj"/><use transform="matrix(0.06172827160493826,0,0,0.06172827160493826,30.802407530864194,0)" xlink:href="#aF"/><use transform="matrix(0.06172827160493826,0,0,0.06172827160493826,48.08632358024691,0)" xlink:href="#al"/><use transform="matrix(0.06172827160493826,0,0,0.06172827160493826,55.431987901234564,0)" xlink:href="#aq"/><use transform="matrix(0.06172827160493826,0,0,0.06172827160493826,67.77764222222221,0)" xlink:href="#aq"/><use transform="matrix(0.06172827160493826,0,0,0.06172827160493826,80.12329654320986,0)" xlink:href="#ap"/></g><path fill="#fff" d="M126-127c33 6 58 20 58 59 0 88-139 92-164 29-3-8-5-16-6-25l32-3c6 27 21 44 54 44 32 0 52-15 52-46 0-38-36-46-79-43v-28c39 1 72-4 72-42 0-27-17-43-46-43-28 0-47 15-49 41l-32-3c6-42 35-63 81-64 48-1 79 21 79 65 0 36-21 52-52 59" id="aK"/><g id="q"><use transform="matrix(0.06172827160493826,0,0,0.06172827160493826,0,0)" xlink:href="#aE"/><use transform="matrix(0.06172827160493826,0,0,0.06172827160493826,15.987622345679009,0)" xlink:href="#aj"/><use transform="matrix(0.06172827160493826,0,0,0.06172827160493826,30.802407530864194,0)" xlink:href="#aF"/><use transform="matrix(0.06172827160493826,0,0,0.06172827160493826,48.08632358024691,0)" xlink:href="#al"/><use transform="matrix(0.06172827160493826,0,0,0.06172827160493826,55.431987901234564,0)" xlink:href="#aq"/><use transform="matrix(0.06172827160493826,0,0,0.06172827160493826,67.77764222222221,0)" xlink:href="#aq"/><use transform="matrix(0.06172827160493826,0,0,0.06172827160493826,80.12329654320986,0)" xlink:href="#aK"/></g><path fill="#fff" d="M137 0h-34L2-248h35l83 218 83-218h36" id="aL"/><g id="r"><use transform="matrix(0.06172839506172839,0,0,0.06172839506172839,0,0)" xlink:href="#aI"/><use transform="matrix(0.06172839506172839,0,0,0.06172839506172839,15.987654320987653,0)" xlink:href="#ao"/><use transform="matrix(0.06172839506172839,0,0,0.06172839506172839,30.80246913580247,0)" xlink:href="#aL"/><use transform="matrix(0.06172839506172839,0,0,0.06172839506172839,44.382716049382715,0)" xlink:href="#al"/><use transform="matrix(0.06172839506172839,0,0,0.06172839506172839,51.72839506172839,0)" xlink:href="#aq"/><use transform="matrix(0.06172839506172839,0,0,0.06172839506172839,64.07407407407408,0)" xlink:href="#aq"/><use transform="matrix(0.06172839506172839,0,0,0.06172839506172839,76.41975308641976,0)" xlink:href="#ap"/></g><g id="s"><use transform="matrix(0.06172827160493826,0,0,0.06172827160493826,0,0)" xlink:href="#an"/><use transform="matrix(0.06172827160493826,0,0,0.06172827160493826,15.987622345679009,0)" xlink:href="#aL"/><use transform="matrix(0.06172827160493826,0,0,0.06172827160493826,29.567842098765425,0)" xlink:href="#al"/><use transform="matrix(0.06172827160493826,0,0,0.06172827160493826,36.91350641975308,0)" xlink:href="#aq"/><use transform="matrix(0.06172827160493826,0,0,0.06172827160493826,49.259160740740725,0)" xlink:href="#aq"/><use transform="matrix(0.06172827160493826,0,0,0.06172827160493826,61.604815061728374,0)" xlink:href="#ap"/></g><g id="t"><use transform="matrix(0.06172827160493826,0,0,0.06172827160493826,0,0)" xlink:href="#aI"/><use transform="matrix(0.06172827160493826,0,0,0.06172827160493826,15.987622345679009,0)" xlink:href="#aJ"/><use transform="matrix(0.06172827160493826,0,0,0.06172827160493826,30.802407530864194,0)" xlink:href="#aw"/><use transform="matrix(0.06172827160493826,0,0,0.06172827160493826,43.14806185185185,0)" xlink:href="#al"/><use transform="matrix(0.06172827160493826,0,0,0.06172827160493826,50.4937261728395,0)" xlink:href="#aq"/><use transform="matrix(0.06172827160493826,0,0,0.06172827160493826,62.83938049382715,0)" xlink:href="#aq"/><use transform="matrix(0.06172827160493826,0,0,0.06172827160493826,75.1850348148148,0)" xlink:href="#ar"/></g><g id="u"><use transform="matrix(0.06172827160493826,0,0,0.06172827160493826,0,0)" xlink:href="#aE"/><use transform="matrix(0.06172827160493826,0,0,0.06172827160493826,15.987622345679009,0)" xlink:href="#aj"/><use transform="matrix(0.06172827160493826,0,0,0.06172827160493826,30.802407530864194,0)" xlink:href="#aF"/><use transform="matrix(0.06172827160493826,0,0,0.06172827160493826,48.08632358024691,0)" xlink:href="#al"/><use transform="matrix(0.06172827160493826,0,0,0.06172827160493826,55.431987901234564,0)" xlink:href="#aq"/><use transform="matrix(0.06172827160493826,0,0,0.06172827160493826,67.77764222222221,0)" xlink:href="#aq"/><use transform="matrix(0.06172827160493826,0,0,0.06172827160493826,80.12329654320986,0)" xlink:href="#aA"/></g><g id="v"><use transform="matrix(0.06172839506172839,0,0,0.06172839506172839,0,0)" xlink:href="#aI"/><use transform="matrix(0.06172839506172839,0,0,0.06172839506172839,15.987654320987653,0)" xlink:href="#ao"/><use transform="matrix(0.06172839506172839,0,0,0.06172839506172839,30.80246913580247,0)" xlink:href="#aL"/><use transform="matrix(0.06172839506172839,0,0,0.06172839506172839,44.382716049382715,0)" xlink:href="#al"/><use transform="matrix(0.06172839506172839,0,0,0.06172839506172839,51.72839506172839,0)" xlink:href="#aq"/><use transform="matrix(0.06172839506172839,0,0,0.06172839506172839,64.07407407407408,0)" xlink:href="#aq"/><use transform="matrix(0.06172839506172839,0,0,0.06172839506172839,76.41975308641976,0)" xlink:href="#aK"/></g><g id="w"><use transform="matrix(0.06172839506172839,0,0,0.06172839506172839,0,0)" xlink:href="#aI"/><use transform="matrix(0.06172839506172839,0,0,0.06172839506172839,15.987654320987653,0)" xlink:href="#ao"/><use transform="matrix(0.06172839506172839,0,0,0.06172839506172839,30.80246913580247,0)" xlink:href="#aL"/><use transform="matrix(0.06172839506172839,0,0,0.06172839506172839,44.382716049382715,0)" xlink:href="#al"/><use transform="matrix(0.06172839506172839,0,0,0.06172839506172839,51.72839506172839,0)" xlink:href="#ar"/><use transform="matrix(0.06172839506172839,0,0,0.06172839506172839,64.07407407407408,0)" xlink:href="#aq"/><use transform="matrix(0.06172839506172839,0,0,0.06172839506172839,76.41975308641976,0)" xlink:href="#ap"/></g><g id="x"><use transform="matrix(0.06172839506172839,0,0,0.06172839506172839,0,0)" xlink:href="#aL"/><use transform="matrix(0.06172839506172839,0,0,0.06172839506172839,14.814814814814813,0)" xlink:href="#aj"/><use transform="matrix(0.06172839506172839,0,0,0.06172839506172839,29.629629629629626,0)" xlink:href="#an"/><use transform="matrix(0.06172839506172839,0,0,0.06172839506172839,45.61728395061728,0)" xlink:href="#ak"/></g><path fill="#fff" d="M197 0v-115H63V0H30v-248h33v105h134v-105h34V0h-34" id="aM"/><path fill="#fff" d="M160-131c35 5 61 23 61 61C221 17 115-2 30 0v-248c76 3 177-17 177 60 0 33-19 50-47 57zm-97-11c50-1 110 9 110-42 0-47-63-36-110-37v79zm0 115c55-2 124 14 124-45 0-56-70-42-124-44v89" id="aN"/><g id="y"><use transform="matrix(0.05555543209876542,0,0,0.05555543209876542,0,0)" xlink:href="#aM"/><use transform="matrix(0.05555543209876542,0,0,0.05555543209876542,14.388856913580245,0)" xlink:href="#aN"/><use transform="matrix(0.05555543209876542,0,0,0.05555543209876542,27.722160617283947,0)" xlink:href="#aL"/><use transform="matrix(0.05555543209876542,0,0,0.05555543209876542,39.94435567901234,0)" xlink:href="#al"/><use transform="matrix(0.05555543209876542,0,0,0.05555543209876542,46.55545209876543,0)" xlink:href="#aq"/><use transform="matrix(0.05555543209876542,0,0,0.05555543209876542,57.66653851851852,0)" xlink:href="#aq"/><use transform="matrix(0.05555543209876542,0,0,0.05555543209876542,68.7776249382716,0)" xlink:href="#ap"/></g><g id="z"><use transform="matrix(0.05555543209876542,0,0,0.05555543209876542,0,0)" xlink:href="#aM"/><use transform="matrix(0.05555543209876542,0,0,0.05555543209876542,14.388856913580245,0)" xlink:href="#aN"/><use transform="matrix(0.05555543209876542,0,0,0.05555543209876542,27.722160617283947,0)" xlink:href="#aL"/><use transform="matrix(0.05555543209876542,0,0,0.05555543209876542,39.94435567901234,0)" xlink:href="#al"/><use transform="matrix(0.05555543209876542,0,0,0.05555543209876542,46.55545209876543,0)" xlink:href="#aq"/><use transform="matrix(0.05555543209876542,0,0,0.05555543209876542,57.66653851851852,0)" xlink:href="#aq"/><use transform="matrix(0.05555543209876542,0,0,0.05555543209876542,68.7776249382716,0)" xlink:href="#ar"/></g><g id="A"><use transform="matrix(0.06172839506172839,0,0,0.06172839506172839,0,0)" xlink:href="#aI"/><use transform="matrix(0.06172839506172839,0,0,0.06172839506172839,15.987654320987653,0)" xlink:href="#ao"/><use transform="matrix(0.06172839506172839,0,0,0.06172839506172839,30.80246913580247,0)" xlink:href="#aL"/><use transform="matrix(0.06172839506172839,0,0,0.06172839506172839,44.382716049382715,0)" xlink:href="#al"/><use transform="matrix(0.06172839506172839,0,0,0.06172839506172839,51.72839506172839,0)" xlink:href="#aq"/><use transform="matrix(0.06172839506172839,0,0,0.06172839506172839,64.07407407407408,0)" xlink:href="#aq"/><use transform="matrix(0.06172839506172839,0,0,0.06172839506172839,76.41975308641976,0)" xlink:href="#aA"/></g><g id="B"><use transform="matrix(0.06172839506172839,0,0,0.06172839506172839,0,0)" xlink:href="#aI"/><use transform="matrix(0.06172839506172839,0,0,0.06172839506172839,15.987654320987653,0)" xlink:href="#ao"/><use transform="matrix(0.06172839506172839,0,0,0.06172839506172839,30.80246913580247,0)" xlink:href="#aL"/><use transform="matrix(0.06172839506172839,0,0,0.06172839506172839,44.382716049382715,0)" xlink:href="#al"/><use transform="matrix(0.06172839506172839,0,0,0.06172839506172839,51.72839506172839,0)" xlink:href="#ap"/><use transform="matrix(0.06172839506172839,0,0,0.06172839506172839,64.07407407407408,0)" xlink:href="#aq"/><use transform="matrix(0.06172839506172839,0,0,0.06172839506172839,76.41975308641976,0)" xlink:href="#ap"/></g><path fill="#fff" d="M30-248c118-7 216 8 213 122C240-48 200 0 122 0H30v-248zM63-27c89 8 146-16 146-99s-60-101-146-95v194" id="aO"/><g id="C"><use transform="matrix(0.06172839506172839,0,0,0.06172839506172839,0,0)" xlink:href="#aO"/><use transform="matrix(0.06172839506172839,0,0,0.06172839506172839,15.987654320987653,0)" xlink:href="#aE"/><use transform="matrix(0.06172839506172839,0,0,0.06172839506172839,31.975308641975307,0)" xlink:href="#am"/><use transform="matrix(0.06172839506172839,0,0,0.06172839506172839,46.79012345679012,0)" xlink:href="#aD"/><use transform="matrix(0.06172839506172839,0,0,0.06172839506172839,52.96296296296296,0)" xlink:href="#an"/></g><g id="D"><use transform="matrix(0.06172827160493826,0,0,0.06172827160493826,0,0)" xlink:href="#aH"/><use transform="matrix(0.06172827160493826,0,0,0.06172827160493826,14.814785185185183,0)" xlink:href="#aE"/><use transform="matrix(0.06172827160493826,0,0,0.06172827160493826,30.370309629629624,0)" xlink:href="#aL"/><use transform="matrix(0.06172827160493826,0,0,0.06172827160493826,43.95052938271604,0)" xlink:href="#al"/><use transform="matrix(0.06172827160493826,0,0,0.06172827160493826,51.29619370370369,0)" xlink:href="#aq"/><use transform="matrix(0.06172827160493826,0,0,0.06172827160493826,63.64184802469135,0)" xlink:href="#aq"/><use transform="matrix(0.06172827160493826,0,0,0.06172827160493826,75.98750234567899,0)" xlink:href="#ap"/></g><g id="E"><use transform="matrix(0.06172827160493826,0,0,0.06172827160493826,0,0)" xlink:href="#ap"/><use transform="matrix(0.06172827160493826,0,0,0.06172827160493826,12.345654320987652,0)" xlink:href="#ar"/><use transform="matrix(0.06172827160493826,0,0,0.06172827160493826,24.691308641975304,0)" xlink:href="#az"/><use transform="matrix(0.06172827160493826,0,0,0.06172827160493826,37.03696296296296,0)" xlink:href="#aB"/></g><g id="F"><use transform="matrix(0.06172827160493826,0,0,0.06172827160493826,0,0)" xlink:href="#as"/><use transform="matrix(0.06172827160493826,0,0,0.06172827160493826,12.345654320987652,0)" xlink:href="#at"/><use transform="matrix(0.06172827160493826,0,0,0.06172827160493826,23.45674320987654,0)" xlink:href="#au"/><use transform="matrix(0.06172827160493826,0,0,0.06172827160493826,28.333276666666663,0)" xlink:href="#av"/></g><g id="H"><use transform="matrix(0.06172827160493826,0,0,0.06172827160493826,0,0)" xlink:href="#an"/><use transform="matrix(0.06172827160493826,0,0,0.06172827160493826,15.987622345679009,0)" xlink:href="#aL"/><use transform="matrix(0.06172827160493826,0,0,0.06172827160493826,29.567842098765425,0)" xlink:href="#al"/><use transform="matrix(0.06172827160493826,0,0,0.06172827160493826,36.91350641975308,0)" xlink:href="#aq"/><use transform="matrix(0.06172827160493826,0,0,0.06172827160493826,49.259160740740725,0)" xlink:href="#aq"/><use transform="matrix(0.06172827160493826,0,0,0.06172827160493826,61.604815061728374,0)" xlink:href="#ar"/></g><g id="I"><use transform="matrix(0.06172839506172839,0,0,0.06172839506172839,0,0)" xlink:href="#aj"/><use transform="matrix(0.06172839506172839,0,0,0.06172839506172839,14.814814814814813,0)" xlink:href="#an"/><use transform="matrix(0.06172839506172839,0,0,0.06172839506172839,30.80246913580247,0)" xlink:href="#aF"/><use transform="matrix(0.06172839506172839,0,0,0.06172839506172839,48.08641975308642,0)" xlink:href="#aD"/><use transform="matrix(0.06172839506172839,0,0,0.06172839506172839,54.25925925925926,0)" xlink:href="#an"/><use transform="matrix(0.06172839506172839,0,0,0.06172839506172839,70.24691358024691,0)" xlink:href="#aj"/></g><g id="J"><use transform="matrix(0.06172839506172839,0,0,0.06172839506172839,0,0)" xlink:href="#aI"/><use transform="matrix(0.06172839506172839,0,0,0.06172839506172839,15.987654320987653,0)" xlink:href="#ao"/><use transform="matrix(0.06172839506172839,0,0,0.06172839506172839,30.80246913580247,0)" xlink:href="#aL"/><use transform="matrix(0.06172839506172839,0,0,0.06172839506172839,44.382716049382715,0)" xlink:href="#al"/><use transform="matrix(0.06172839506172839,0,0,0.06172839506172839,51.72839506172839,0)" xlink:href="#aq"/><use transform="matrix(0.06172839506172839,0,0,0.06172839506172839,64.07407407407408,0)" xlink:href="#aq"/><use transform="matrix(0.06172839506172839,0,0,0.06172839506172839,76.41975308641976,0)" xlink:href="#ar"/></g><g id="K"><use transform="matrix(0.06172827160493826,0,0,0.06172827160493826,0,0)" xlink:href="#aI"/><use transform="matrix(0.06172827160493826,0,0,0.06172827160493826,15.987622345679009,0)" xlink:href="#aJ"/><use transform="matrix(0.06172827160493826,0,0,0.06172827160493826,30.802407530864194,0)" xlink:href="#aw"/><use transform="matrix(0.06172827160493826,0,0,0.06172827160493826,43.14806185185185,0)" xlink:href="#al"/><use transform="matrix(0.06172827160493826,0,0,0.06172827160493826,50.4937261728395,0)" xlink:href="#aq"/><use transform="matrix(0.06172827160493826,0,0,0.06172827160493826,62.83938049382715,0)" xlink:href="#aq"/><use transform="matrix(0.06172827160493826,0,0,0.06172827160493826,75.1850348148148,0)" xlink:href="#aK"/></g><g id="L"><use transform="matrix(0.06172827160493826,0,0,0.06172827160493826,0,0)" xlink:href="#aH"/><use transform="matrix(0.06172827160493826,0,0,0.06172827160493826,14.814785185185183,0)" xlink:href="#aE"/><use transform="matrix(0.06172827160493826,0,0,0.06172827160493826,30.370309629629624,0)" xlink:href="#aL"/><use transform="matrix(0.06172827160493826,0,0,0.06172827160493826,43.95052938271604,0)" xlink:href="#al"/><use transform="matrix(0.06172827160493826,0,0,0.06172827160493826,51.29619370370369,0)" xlink:href="#aq"/><use transform="matrix(0.06172827160493826,0,0,0.06172827160493826,63.64184802469135,0)" xlink:href="#aq"/><use transform="matrix(0.06172827160493826,0,0,0.06172827160493826,75.98750234567899,0)" xlink:href="#ar"/></g><path fill="#fff" d="M99-251c64 0 84 50 84 122C183-37 130 33 47-8c-14-7-20-23-25-40l30-5c6 39 69 39 84 7 9-19 16-44 16-74-10 22-31 35-62 35-49 0-73-33-73-83 0-54 28-83 82-83zm-1 141c31-1 51-18 51-49 0-36-14-67-51-67-34 0-49 23-49 58 0 34 15 58 49 58" id="aP"/><g id="M"><use transform="matrix(0.06172827160493826,0,0,0.06172827160493826,0,0)" xlink:href="#aP"/><use transform="matrix(0.06172827160493826,0,0,0.06172827160493826,12.345654320987652,0)" xlink:href="#aK"/><use transform="matrix(0.06172827160493826,0,0,0.06172827160493826,24.691308641975304,0)" xlink:href="#aq"/></g><g id="N"><use transform="matrix(0.05555543209876542,0,0,0.05555543209876542,0,0)" xlink:href="#aM"/><use transform="matrix(0.05555543209876542,0,0,0.05555543209876542,14.388856913580245,0)" xlink:href="#aN"/><use transform="matrix(0.05555543209876542,0,0,0.05555543209876542,27.722160617283947,0)" xlink:href="#aL"/><use transform="matrix(0.05555543209876542,0,0,0.05555543209876542,39.94435567901234,0)" xlink:href="#al"/><use transform="matrix(0.05555543209876542,0,0,0.05555543209876542,46.55545209876543,0)" xlink:href="#ar"/><use transform="matrix(0.05555543209876542,0,0,0.05555543209876542,57.66653851851852,0)" xlink:href="#aq"/><use transform="matrix(0.05555543209876542,0,0,0.05555543209876542,68.7776249382716,0)" xlink:href="#ap"/></g><path fill="#fff" d="M0 4l72-265h28L28 4H0" id="aQ"/><g id="O"><use transform="matrix(0.06172839506172839,0,0,0.06172839506172839,0,0)" xlink:href="#aC"/><use transform="matrix(0.06172839506172839,0,0,0.06172839506172839,13.518518518518517,0)" xlink:href="#aD"/><use transform="matrix(0.06172839506172839,0,0,0.06172839506172839,19.691358024691358,0)" xlink:href="#aw"/><use transform="matrix(0.06172839506172839,0,0,0.06172839506172839,32.03703703703704,0)" xlink:href="#aw"/><use transform="matrix(0.06172839506172839,0,0,0.06172839506172839,44.382716049382715,0)" xlink:href="#aQ"/></g><g id="P"><use transform="matrix(0.06172839506172839,0,0,0.06172839506172839,0,0)" xlink:href="#aO"/><use transform="matrix(0.06172839506172839,0,0,0.06172839506172839,15.987654320987653,0)" xlink:href="#aE"/><use transform="matrix(0.06172839506172839,0,0,0.06172839506172839,31.975308641975307,0)" xlink:href="#am"/><use transform="matrix(0.06172839506172839,0,0,0.06172839506172839,46.79012345679012,0)" xlink:href="#aD"/><use transform="matrix(0.06172839506172839,0,0,0.06172839506172839,52.96296296296296,0)" xlink:href="#an"/></g><g id="Q"><use transform="matrix(0.06172839506172839,0,0,0.06172839506172839,0,0)" xlink:href="#aM"/><use transform="matrix(0.06172839506172839,0,0,0.06172839506172839,15.987654320987653,0)" xlink:href="#aN"/><use transform="matrix(0.06172839506172839,0,0,0.06172839506172839,30.80246913580247,0)" xlink:href="#aL"/><use transform="matrix(0.06172839506172839,0,0,0.06172839506172839,44.382716049382715,0)" xlink:href="#al"/><use transform="matrix(0.06172839506172839,0,0,0.06172839506172839,51.72839506172839,0)" xlink:href="#ap"/><use transform="matrix(0.06172839506172839,0,0,0.06172839506172839,64.07407407407408,0)" xlink:href="#aq"/><use transform="matrix(0.06172839506172839,0,0,0.06172839506172839,76.41975308641976,0)" xlink:href="#ap"/></g><g id="R"><use transform="matrix(0.06172827160493826,0,0,0.06172827160493826,0,0)" xlink:href="#aH"/><use transform="matrix(0.06172827160493826,0,0,0.06172827160493826,14.814785185185183,0)" xlink:href="#aG"/><use transform="matrix(0.06172827160493826,0,0,0.06172827160493826,30.802407530864194,0)" xlink:href="#aE"/><use transform="matrix(0.06172827160493826,0,0,0.06172827160493826,46.7900298765432,0)" xlink:href="#aF"/><use transform="matrix(0.06172827160493826,0,0,0.06172827160493826,64.07394592592591,0)" xlink:href="#aj"/></g><g id="S"><use transform="matrix(0.06172827160493826,0,0,0.06172827160493826,0,0)" xlink:href="#aC"/><use transform="matrix(0.06172827160493826,0,0,0.06172827160493826,13.51849148148148,0)" xlink:href="#aG"/><use transform="matrix(0.06172827160493826,0,0,0.06172827160493826,29.50611382716049,0)" xlink:href="#aj"/><use transform="matrix(0.06172827160493826,0,0,0.06172827160493826,44.32089901234568,0)" xlink:href="#aw"/></g><g id="T"><use transform="matrix(0.06172827160493826,0,0,0.06172827160493826,0,0)" xlink:href="#aw"/><use transform="matrix(0.06172827160493826,0,0,0.06172827160493826,12.345654320987652,0)" xlink:href="#ax"/><use transform="matrix(0.06172827160493826,0,0,0.06172827160493826,29.629570370370367,0)" xlink:href="#ay"/></g><g id="U"><use transform="matrix(0.06172827160493826,0,0,0.06172827160493826,0,0)" xlink:href="#aE"/><use transform="matrix(0.06172827160493826,0,0,0.06172827160493826,15.987622345679009,0)" xlink:href="#aj"/><use transform="matrix(0.06172827160493826,0,0,0.06172827160493826,30.802407530864194,0)" xlink:href="#aF"/><use transform="matrix(0.06172827160493826,0,0,0.06172827160493826,48.08632358024691,0)" xlink:href="#al"/><use transform="matrix(0.06172827160493826,0,0,0.06172827160493826,55.431987901234564,0)" xlink:href="#aq"/><use transform="matrix(0.06172827160493826,0,0,0.06172827160493826,67.77764222222221,0)" xlink:href="#aq"/><use transform="matrix(0.06172827160493826,0,0,0.06172827160493826,80.12329654320986,0)" xlink:href="#aB"/></g><g id="V"><use transform="matrix(0.06172827160493826,0,0,0.06172827160493826,0,0)" xlink:href="#aC"/><use transform="matrix(0.06172827160493826,0,0,0.06172827160493826,13.51849148148148,0)" xlink:href="#aw"/><use transform="matrix(0.06172827160493826,0,0,0.06172827160493826,24.1974824691358,0)" xlink:href="#ak"/><use transform="matrix(0.06172827160493826,0,0,0.06172827160493826,36.48140851851851,0)" xlink:href="#al"/><use transform="matrix(0.06172827160493826,0,0,0.06172827160493826,43.827072839506165,0)" xlink:href="#aq"/><use transform="matrix(0.06172827160493826,0,0,0.06172827160493826,56.17272716049382,0)" xlink:href="#aq"/><use transform="matrix(0.06172827160493826,0,0,0.06172827160493826,68.51838148148147,0)" xlink:href="#ap"/></g><g id="W"><use transform="matrix(0.06172827160493826,0,0,0.06172827160493826,0,0)" xlink:href="#aC"/><use transform="matrix(0.06172827160493826,0,0,0.06172827160493826,13.51849148148148,0)" xlink:href="#aw"/><use transform="matrix(0.06172827160493826,0,0,0.06172827160493826,24.1974824691358,0)" xlink:href="#ak"/><use transform="matrix(0.06172827160493826,0,0,0.06172827160493826,36.48140851851851,0)" xlink:href="#al"/><use transform="matrix(0.06172827160493826,0,0,0.06172827160493826,43.827072839506165,0)" xlink:href="#aq"/><use transform="matrix(0.06172827160493826,0,0,0.06172827160493826,56.17272716049382,0)" xlink:href="#aq"/><use transform="matrix(0.06172827160493826,0,0,0.06172827160493826,68.51838148148147,0)" xlink:href="#ar"/></g><g id="X"><use transform="matrix(0.06172827160493826,0,0,0.06172827160493826,0,0)" xlink:href="#aC"/><use transform="matrix(0.06172827160493826,0,0,0.06172827160493826,13.51849148148148,0)" xlink:href="#aw"/><use transform="matrix(0.06172827160493826,0,0,0.06172827160493826,24.1974824691358,0)" xlink:href="#ak"/><use transform="matrix(0.06172827160493826,0,0,0.06172827160493826,36.48140851851851,0)" xlink:href="#al"/><use transform="matrix(0.06172827160493826,0,0,0.06172827160493826,43.827072839506165,0)" xlink:href="#aq"/><use transform="matrix(0.06172827160493826,0,0,0.06172827160493826,56.17272716049382,0)" xlink:href="#aq"/><use transform="matrix(0.06172827160493826,0,0,0.06172827160493826,68.51838148148147,0)" xlink:href="#aK"/></g><g id="Y"><use transform="matrix(0.06172827160493826,0,0,0.06172827160493826,0,0)" xlink:href="#aC"/><use transform="matrix(0.06172827160493826,0,0,0.06172827160493826,13.51849148148148,0)" xlink:href="#aw"/><use transform="matrix(0.06172827160493826,0,0,0.06172827160493826,24.1974824691358,0)" xlink:href="#ak"/><use transform="matrix(0.06172827160493826,0,0,0.06172827160493826,36.48140851851851,0)" xlink:href="#al"/><use transform="matrix(0.06172827160493826,0,0,0.06172827160493826,43.827072839506165,0)" xlink:href="#ap"/><use transform="matrix(0.06172827160493826,0,0,0.06172827160493826,56.17272716049382,0)" xlink:href="#aq"/><use transform="matrix(0.06172827160493826,0,0,0.06172827160493826,68.51838148148147,0)" xlink:href="#ap"/></g><g id="Z"><use transform="matrix(0.06172839506172839,0,0,0.06172839506172839,0,0)" xlink:href="#aI"/><use transform="matrix(0.06172839506172839,0,0,0.06172839506172839,15.987654320987653,0)" xlink:href="#ao"/><use transform="matrix(0.06172839506172839,0,0,0.06172839506172839,30.80246913580247,0)" xlink:href="#aL"/><use transform="matrix(0.06172839506172839,0,0,0.06172839506172839,44.382716049382715,0)" xlink:href="#al"/><use transform="matrix(0.06172839506172839,0,0,0.06172839506172839,51.72839506172839,0)" xlink:href="#ap"/><use transform="matrix(0.06172839506172839,0,0,0.06172839506172839,64.07407407407408,0)" xlink:href="#aq"/><use transform="matrix(0.06172839506172839,0,0,0.06172839506172839,76.41975308641976,0)" xlink:href="#ar"/></g><g id="aa"><use transform="matrix(0.06172839506172839,0,0,0.06172839506172839,0,0)" xlink:href="#aB"/><use transform="matrix(0.06172839506172839,0,0,0.06172839506172839,12.345679012345679,0)" xlink:href="#am"/></g><g id="ab"><use transform="matrix(0.06172839506172839,0,0,0.06172839506172839,0,0)" xlink:href="#aB"/><use transform="matrix(0.06172839506172839,0,0,0.06172839506172839,12.345679012345679,0)" xlink:href="#aN"/></g><g id="ac"><use transform="matrix(0.06172839506172839,0,0,0.06172839506172839,0,0)" xlink:href="#ap"/><use transform="matrix(0.06172839506172839,0,0,0.06172839506172839,12.345679012345679,0)" xlink:href="#am"/></g><g id="ad"><use transform="matrix(0.06172839506172839,0,0,0.06172839506172839,0,0)" xlink:href="#ap"/><use transform="matrix(0.06172839506172839,0,0,0.06172839506172839,12.345679012345679,0)" xlink:href="#aN"/></g><g id="ae"><use transform="matrix(0.06172839506172839,0,0,0.06172839506172839,0,0)" xlink:href="#aK"/><use transform="matrix(0.06172839506172839,0,0,0.06172839506172839,12.345679012345679,0)" xlink:href="#am"/></g><g id="af"><use transform="matrix(0.06172839506172839,0,0,0.06172839506172839,0,0)" xlink:href="#aK"/><use transform="matrix(0.06172839506172839,0,0,0.06172839506172839,12.345679012345679,0)" xlink:href="#aN"/></g><g id="ag"><use transform="matrix(0.06172839506172839,0,0,0.06172839506172839,0,0)" xlink:href="#aA"/><use transform="matrix(0.06172839506172839,0,0,0.06172839506172839,12.345679012345679,0)" xlink:href="#am"/></g><g id="ah"><use transform="matrix(0.06172839506172839,0,0,0.06172839506172839,0,0)" xlink:href="#aA"/><use transform="matrix(0.06172839506172839,0,0,0.06172839506172839,12.345679012345679,0)" xlink:href="#aN"/></g></defs></g></svg>