<svg xmlns="http://www.w3.org/2000/svg" xmlns:xlink="http://www.w3.org/1999/xlink" xmlns:lucid="lucid" width="1086.59" height="261.56"><g transform="translate(-387.37232124305154 -363.63621416416186)" lucid:page-tab-id="u-KI_AMggEw7"><path d="M544.14 604.2h167.23c15.4 0 27.87-25.18 27.87-56.24 0-31.06-12.48-56.24-27.87-56.24H544.14c-15.4 0-27.87 25.18-27.87 56.24 0 31.06 12.48 56.24 27.87 56.24z" stroke="#ef8d22" stroke-width="2"/><path d="M483.35 521.16a6 6 0 0 1 6-6h271.43a6 6 0 0 1 6 6v60.57a6 6 0 0 1-6 6H489.35a6 6 0 0 1-6-6z" stroke="#000" stroke-opacity="0" stroke-width="2" fill-opacity="0"/><use xlink:href="#a" transform="matrix(1,0,0,1,488.3460977438178,520.1580171577436) translate(38.97530864197532 21.71527777777778)"/><use xlink:href="#b" transform="matrix(1,0,0,1,488.3460977438178,520.1580171577436) translate(175.20987654320987 21.71527777777778)"/><use xlink:href="#c" transform="matrix(1,0,0,1,488.3460977438178,520.1580171577436) translate(108.01851851851852 48.38194444444444)"/><path d="M627.75 449v39.72M627.75 449.05V447" stroke="#ef8d22" stroke-width="4" fill="none"/><path d="M629.75 490.72h-4v-2.06h4z" stroke="#ef8d22" stroke-width=".05" fill="#ef8d22"/><path d="M839.87 401.64h-19.82l9.9 16.1z" stroke="#fff" stroke-width="2"/><g fill-opacity="0"><path d="M853.62 384.64v16h-48v-16z"/><path d="M853.62 384.64h-48.05M830.05 384.64v15.95" stroke="#fff" stroke-width="2"/></g><path d="M802.26 403.62v32l27.9-16zM858.26 435.62v-32l-27.92 16z" stroke="#fff" stroke-width="2"/><path d="M799.25 419.62h-87.2a.05.05 0 0 1-.05-.05.05.05 0 0 0-.05-.05h-78.2a6 6 0 0 0-6 6v63.2" stroke="#ef8d22" stroke-width="4" fill="none"/><path d="M801.25 421.62h-2.05v-4h2.05zM629.75 490.72h-4v-2.06h4z" stroke="#ef8d22" stroke-width=".05" fill="#ef8d22"/><path d="M861.25 419.62h71.42a.05.05 0 0 0 .05-.05.05.05 0 0 1 .05-.05h71.42" stroke="#ef8d22" stroke-width="4" fill="none"/><path d="M861.3 421.62h-2.04v-4h2.05zM1006.2 421.52h-2.06v-4h2.05z" stroke="#ef8d22" stroke-width=".05" fill="#ef8d22"/><path d="M1008.2 402.3v34.44h17.34V402.3z" fill-opacity="0"/><path d="M1008.2 402.3v34.44M1025.54 402.3v34.44" stroke="#fff" stroke-width="4"/><path d="M1216.43 452.73V386.5l-91.62 33.12zM1216.43 386.5h236.53v66.23h-236.53z" stroke="#fff" stroke-width="2" fill-opacity="0"/><use xlink:href="#d" transform="matrix(1,0,0,1,1221.4311411767515,391.5116712501755) translate(11.21604938271608 32.02777777777777)"/><use xlink:href="#e" transform="matrix(1,0,0,1,1221.4311411767515,391.5116712501755) translate(55.53703703703705 32.02777777777777)"/><path d="M1122.8 419.62h-93.26" stroke="#ef8d22" stroke-width="4" fill="none"/><path d="M1127.4 421.62h-4.64v-1.68zm-4.64-2.32v-1.68h4.64zM1029.6 421.62h-2.06v-4h2.05z" stroke="#ef8d22" stroke-width=".05" fill="#ef8d22"/><path d="M972.88 441.1h87.97v40h-87.97z" stroke="#000" stroke-opacity="0" stroke-width="4" fill="#fff" fill-opacity="0"/><use xlink:href="#f" transform="matrix(1,0,0,1,977.8802669596332,446.09223914254017) translate(0.17283950617284205 19.65277777777778)"/><path d="M787.64 441.1h87.96v40h-87.96z" stroke="#000" stroke-opacity="0" stroke-width="4" fill-opacity="0"/><use xlink:href="#g" transform="matrix(1,0,0,1,792.6355498891119,446.09223914254017) translate(2.024691358024697 19.65277777777778)"/><path d="M394.37 548.14h59.36a.1.1 0 0 0 .1-.1.1.1 0 0 1 .08-.08h59.37M394.42 548.14h-2.05" stroke="#ef8d22" stroke-width="4" fill="none"/><path d="M515.27 547.96l.1 2h-2.15v-4h2.1z" stroke="#ef8d22" stroke-width=".05" fill="#ef8d22"/><defs><path fill="#fff" d="M24-248c93 1 206-16 204 79-1 75-69 88-152 82V0H24v-248zm52 121c47 0 100 7 100-41 0-47-54-39-100-39v80" id="h"/><path fill="#fff" d="M175 0L67-191c6 58 2 128 3 191H24v-248h59L193-55c-6-58-2-129-3-193h46V0h-61" id="i"/><path fill="#fff" d="M238-95c0 69-44 99-111 99C63 4 22-25 22-93v-155h51v151c-1 38 19 59 55 60 90 1 49-130 58-211h52v153" id="j"/><path fill="#fff" d="M24 0v-248h195v40H76v63h132v40H76v65h150V0H24" id="k"/><path fill="#fff" d="M230 0l2-204L168 0h-37L68-204 70 0H24v-248h70l56 185 57-185h69V0h-46" id="l"/><path fill="#fff" d="M199 0l-22-63H83L61 0H9l90-248h61L250 0h-51zm-33-102l-36-108c-10 38-24 72-36 108h72" id="m"/><path fill="#fff" d="M136-208V0H84v-208H4v-40h212v40h-80" id="n"/><path fill="#fff" d="M24 0v-248h52V0H24" id="o"/><path fill="#fff" d="M67-125c0 53 21 87 73 88 37 1 54-22 65-47l45 17C233-25 199 4 140 4 58 4 20-42 15-125 8-235 124-281 211-232c18 10 29 29 36 50l-46 12c-8-25-30-41-62-41-52 0-71 34-72 86" id="p"/><g id="a"><use transform="matrix(0.06172839506172839,0,0,0.06172839506172839,0,0)" xlink:href="#h"/><use transform="matrix(0.06172839506172839,0,0,0.06172839506172839,14.814814814814813,0)" xlink:href="#i"/><use transform="matrix(0.06172839506172839,0,0,0.06172839506172839,30.80246913580247,0)" xlink:href="#j"/><use transform="matrix(0.06172839506172839,0,0,0.06172839506172839,46.79012345679012,0)" xlink:href="#k"/><use transform="matrix(0.06172839506172839,0,0,0.06172839506172839,61.60493827160494,0)" xlink:href="#l"/><use transform="matrix(0.06172839506172839,0,0,0.06172839506172839,80.06172839506172,0)" xlink:href="#m"/><use transform="matrix(0.06172839506172839,0,0,0.06172839506172839,94.38271604938271,0)" xlink:href="#n"/><use transform="matrix(0.06172839506172839,0,0,0.06172839506172839,107.90123456790123,0)" xlink:href="#o"/><use transform="matrix(0.06172839506172839,0,0,0.06172839506172839,114.07407407407406,0)" xlink:href="#p"/></g><path fill="#fff" d="M195 0l-88-114-31 24V0H24v-248h52v113l112-113h60L142-143 257 0h-62" id="q"/><g id="b"><use transform="matrix(0.06172839506172839,0,0,0.06172839506172839,0,0)" xlink:href="#n"/><use transform="matrix(0.06172839506172839,0,0,0.06172839506172839,11.851851851851851,0)" xlink:href="#m"/><use transform="matrix(0.06172839506172839,0,0,0.06172839506172839,27.839506172839506,0)" xlink:href="#i"/><use transform="matrix(0.06172839506172839,0,0,0.06172839506172839,43.82716049382716,0)" xlink:href="#q"/></g><path fill="#fff" d="M147 0H94L2-248h55l64 206c17-72 42-137 63-206h54" id="r"/><path fill="#fff" d="M14-72v-43h91v43H14" id="s"/><path fill="#fff" d="M165-50V0h-47v-50H5v-38l105-160h55v161h33v37h-33zm-47-37l2-116L46-87h72" id="t"/><path fill="#fff" d="M101-251c68 0 84 54 84 127C185-50 166 4 99 4S15-52 14-124c-1-75 17-127 87-127zm-1 216c37-5 36-46 36-89s4-89-36-89c-39 0-36 45-36 89 0 43-3 85 36 89" id="u"/><path fill="#fff" d="M23 0v-37h61v-169l-59 37v-38l62-41h46v211h57V0H23" id="v"/><g id="c"><use transform="matrix(0.06172839506172839,0,0,0.06172839506172839,0,0)" xlink:href="#r"/><use transform="matrix(0.06172839506172839,0,0,0.06172839506172839,13.580246913580245,0)" xlink:href="#s"/><use transform="matrix(0.06172839506172839,0,0,0.06172839506172839,20.925925925925924,0)" xlink:href="#t"/><use transform="matrix(0.06172839506172839,0,0,0.06172839506172839,33.2716049382716,0)" xlink:href="#u"/><use transform="matrix(0.06172839506172839,0,0,0.06172839506172839,45.61728395061728,0)" xlink:href="#v"/></g><path fill="#fff" d="M240-174c0 40-23 61-54 70L253 0h-59l-57-94H76V0H24v-248c93 4 217-23 216 74zM76-134c48-2 112 12 112-38 0-48-66-32-112-35v73" id="w"/><g id="d"><use transform="matrix(0.06172839506172837,0,0,0.06172839506172837,0,0)" xlink:href="#m"/><use transform="matrix(0.06172839506172837,0,0,0.06172839506172837,15.987654320987648,0)" xlink:href="#o"/><use transform="matrix(0.06172839506172837,0,0,0.06172839506172837,22.160493827160487,0)" xlink:href="#w"/></g><path fill="#fff" d="M140-251c80 0 125 45 125 126S219 4 139 4C58 4 15-44 15-125s44-126 125-126zm-1 214c52 0 73-35 73-88 0-50-21-86-72-86-52 0-73 35-73 86s22 88 72 88" id="x"/><path fill="#fff" d="M169-182c-1-43-94-46-97-3 18 66 151 10 154 114 3 95-165 93-204 36-6-8-10-19-12-30l50-8c3 46 112 56 116 5-17-69-150-10-154-114-4-87 153-88 188-35 5 8 8 18 10 28" id="y"/><g id="e"><use transform="matrix(0.06172839506172837,0,0,0.06172839506172837,0,0)" xlink:href="#p"/><use transform="matrix(0.06172839506172837,0,0,0.06172839506172837,15.987654320987648,0)" xlink:href="#x"/><use transform="matrix(0.06172839506172837,0,0,0.06172839506172837,33.271604938271594,0)" xlink:href="#l"/><use transform="matrix(0.06172839506172837,0,0,0.06172839506172837,51.72839506172838,0)" xlink:href="#h"/><use transform="matrix(0.06172839506172837,0,0,0.06172839506172837,66.54320987654319,0)" xlink:href="#w"/><use transform="matrix(0.06172839506172837,0,0,0.06172839506172837,82.53086419753083,0)" xlink:href="#k"/><use transform="matrix(0.06172839506172837,0,0,0.06172839506172837,97.34567901234564,0)" xlink:href="#y"/><use transform="matrix(0.06172839506172837,0,0,0.06172839506172837,112.16049382716045,0)" xlink:href="#y"/><use transform="matrix(0.06172839506172837,0,0,0.06172839506172837,126.97530864197526,0)" xlink:href="#x"/><use transform="matrix(0.06172839506172837,0,0,0.06172839506172837,144.2592592592592,0)" xlink:href="#w"/></g><path fill="#fff" d="M140-251c80 0 125 45 125 126 0 70-33 111-92 124 6 28 34 38 68 31l-1 36C177 83 129 55 120 2 51-6 15-50 15-125c0-81 44-126 125-126zm-1 214c52 0 73-35 73-88 0-50-21-86-72-86-52 0-73 35-73 86s22 88 72 88" id="z"/><path fill="#fff" d="M24-248c120-7 223 5 221 122C244-46 201 0 124 0H24v-248zM76-40c74 7 117-18 117-86 0-67-45-88-117-82v168" id="A"/><g id="f"><use transform="matrix(0.06172839506172839,0,0,0.06172839506172839,0,0)" xlink:href="#z"/><use transform="matrix(0.06172839506172839,0,0,0.06172839506172839,17.28395061728395,0)" xlink:href="#A"/><use transform="matrix(0.06172839506172839,0,0,0.06172839506172839,33.2716049382716,0)" xlink:href="#s"/><use transform="matrix(0.06172839506172839,0,0,0.06172839506172839,40.61728395061728,0)" xlink:href="#t"/><use transform="matrix(0.06172839506172839,0,0,0.06172839506172839,52.962962962962955,0)" xlink:href="#u"/><use transform="matrix(0.06172839506172839,0,0,0.06172839506172839,65.30864197530863,0)" xlink:href="#v"/></g><g id="g"><use transform="matrix(0.06172839506172839,0,0,0.06172839506172839,0,0)" xlink:href="#i"/><use transform="matrix(0.06172839506172839,0,0,0.06172839506172839,15.987654320987653,0)" xlink:href="#r"/><use transform="matrix(0.06172839506172839,0,0,0.06172839506172839,29.5679012345679,0)" xlink:href="#s"/><use transform="matrix(0.06172839506172839,0,0,0.06172839506172839,36.913580246913575,0)" xlink:href="#t"/><use transform="matrix(0.06172839506172839,0,0,0.06172839506172839,49.25925925925925,0)" xlink:href="#u"/><use transform="matrix(0.06172839506172839,0,0,0.06172839506172839,61.60493827160493,0)" xlink:href="#v"/></g></defs></g></svg>